<svg xmlns="http://www.w3.org/2000/svg" xmlns:xlink="http://www.w3.org/1999/xlink" contentStyleType="text/css" data-diagram-type="CLASS" height="508px" preserveAspectRatio="none" style="width:570px;height:508px;background:#FAFBFC;" version="1.1" viewBox="0 0 570 508" width="570px" zoomAndPan="magnify"><?plantuml 1.2026.6?><defs/><g><rect fill="#FAFBFC" height="508" style="stroke:none;stroke-width:1;" width="570" x="0" y="0"/><!--cluster Backend--><g class="cluster" data-qualified-name="Backend" data-source-line="9" id="ent0002"><rect fill="none" height="362.63" rx="2.5" ry="2.5" style="stroke:#000000;stroke-width:1.5;" width="549" x="7" y="131.42"/><text fill="#000000" font-family="Segoe UI" font-size="11" font-weight="700" lengthAdjust="spacing" textLength="192.1724" x="185.4138" y="143.6304">Java Spring Boot Microservices</text></g><!--class Gateway--><g class="entity" data-qualified-name="Backend.Gateway" data-source-line="10" id="ent0003"><rect fill="#CBA6F7" height="51.6094" rx="2.5" ry="2.5" style="stroke:#181818;stroke-width:0.5;" width="97.4912" x="146.25" y="162.42"/><ellipse cx="159.25" cy="180.2247" fill="#ADD1B2" rx="9" ry="9" style="stroke:#181818;stroke-width:1;"/><path d="M160.5625,183.9903 Q160.1875,184.1934 159.7656,184.2872 Q159.3594,184.3809 158.8906,184.3809 Q157.2813,184.3809 156.4219,183.3184 Q155.5625,182.2403 155.5625,180.2247 Q155.5625,178.1934 156.4219,177.1309 Q157.2813,176.0528 158.8906,176.0528 Q159.3594,176.0528 159.7656,176.1622 Q160.1875,176.2559 160.5625,176.4434 L160.5625,178.2091 Q160.1406,177.8341 159.75,177.6622 Q159.375,177.4903 158.9688,177.4903 Q158.1094,177.4903 157.6563,178.1778 Q157.2188,178.8653 157.2188,180.2247 Q157.2188,181.5841 157.6563,182.2716 Q158.1094,182.9591 158.9688,182.9591 Q159.375,182.9591 159.75,182.7872 Q160.1406,182.6153 160.5625,182.2247 L160.5625,183.9903 Z " fill="#000000"/><text fill="#000000" font-family="Segoe UI" font-size="11" lengthAdjust="spacing" textLength="69.4912" x="171.25" y="177.6304">API Gateway</text><text fill="#000000" font-family="Segoe UI" font-size="11" lengthAdjust="spacing" textLength="31.7002" x="190.1455" y="190.4351">:8080</text><line style="stroke:#181818;stroke-width:0.5;" x1="147.25" x2="242.7412" y1="198.0294" y2="198.0294"/><line style="stroke:#181818;stroke-width:0.5;" x1="147.25" x2="242.7412" y1="206.0294" y2="206.0294"/></g><!--class Semantic--><g class="entity" data-qualified-name="Backend.Semantic" data-source-line="11" id="ent0004"><rect fill="#F9E2AF" height="64.4141" rx="2.5" ry="2.5" style="stroke:#181818;stroke-width:0.5;" width="134.3423" x="187.83" y="288.03"/><ellipse cx="200.83" cy="312.237" fill="#ADD1B2" rx="9" ry="9" style="stroke:#181818;stroke-width:1;"/><path d="M202.1425,316.0027 Q201.7675,316.2058 201.3456,316.2995 Q200.9394,316.3933 200.4706,316.3933 Q198.8613,316.3933 198.0019,315.3308 Q197.1425,314.2527 197.1425,312.237 Q197.1425,310.2058 198.0019,309.1433 Q198.8613,308.0652 200.4706,308.0652 Q200.9394,308.0652 201.3456,308.1745 Q201.7675,308.2683 202.1425,308.4558 L202.1425,310.2214 Q201.7206,309.8464 201.33,309.6745 Q200.955,309.5027 200.5488,309.5027 Q199.6894,309.5027 199.2363,310.1902 Q198.7988,310.8777 198.7988,312.237 Q198.7988,313.5964 199.2363,314.2839 Q199.6894,314.9714 200.5488,314.9714 Q200.955,314.9714 201.33,314.7995 Q201.7206,314.6277 202.1425,314.237 L202.1425,316.0027 Z " fill="#000000"/><text fill="#000000" font-family="Segoe UI" font-size="11" lengthAdjust="spacing" textLength="95.7451" x="218.1286" y="303.2404">Semantic Service</text><text fill="#000000" font-family="Segoe UI" font-size="11" lengthAdjust="spacing" textLength="31.7002" x="250.151" y="316.0451">:8083</text><text fill="#000000" font-family="Segoe UI" font-size="11" lengthAdjust="spacing" textLength="106.3423" x="212.83" y="328.8498">REST + WebSocket</text><line style="stroke:#181818;stroke-width:0.5;" x1="188.83" x2="321.1723" y1="336.4441" y2="336.4441"/><line style="stroke:#181818;stroke-width:0.5;" x1="188.83" x2="321.1723" y1="344.4441" y2="344.4441"/></g><!--class Lexical--><g class="entity" data-qualified-name="Backend.Lexical" data-source-line="12" id="ent0005"><rect fill="#A6E3A1" height="51.6094" rx="2.5" ry="2.5" style="stroke:#181818;stroke-width:0.5;" width="110.457" x="101.77" y="426.44"/><ellipse cx="114.77" cy="444.2447" fill="#ADD1B2" rx="9" ry="9" style="stroke:#181818;stroke-width:1;"/><path d="M116.0825,448.0103 Q115.7075,448.2134 115.2856,448.3072 Q114.8794,448.4009 114.4106,448.4009 Q112.8013,448.4009 111.9419,447.3384 Q111.0825,446.2603 111.0825,444.2447 Q111.0825,442.2134 111.9419,441.1509 Q112.8013,440.0728 114.4106,440.0728 Q114.8794,440.0728 115.2856,440.1822 Q115.7075,440.2759 116.0825,440.4634 L116.0825,442.2291 Q115.6606,441.8541 115.27,441.6822 Q114.895,441.5103 114.4888,441.5103 Q113.6294,441.5103 113.1763,442.1978 Q112.7388,442.8853 112.7388,444.2447 Q112.7388,445.6041 113.1763,446.2916 Q113.6294,446.9791 114.4888,446.9791 Q114.895,446.9791 115.27,446.8072 Q115.6606,446.6353 116.0825,446.2447 L116.0825,448.0103 Z " fill="#000000"/><text fill="#000000" font-family="Segoe UI" font-size="11" lengthAdjust="spacing" textLength="82.457" x="126.77" y="441.6504">Lexical Service</text><text fill="#000000" font-family="Segoe UI" font-size="11" lengthAdjust="spacing" textLength="31.7002" x="152.1484" y="454.4551">:8081</text><line style="stroke:#181818;stroke-width:0.5;" x1="102.77" x2="211.227" y1="462.0494" y2="462.0494"/><line style="stroke:#181818;stroke-width:0.5;" x1="102.77" x2="211.227" y1="470.0494" y2="470.0494"/></g><!--class Syntactic--><g class="entity" data-qualified-name="Backend.Syntactic" data-source-line="13" id="ent0006"><rect fill="#F38BA8" height="51.6094" rx="2.5" ry="2.5" style="stroke:#181818;stroke-width:0.5;" width="123.1328" x="291.43" y="426.44"/><ellipse cx="304.43" cy="444.2447" fill="#ADD1B2" rx="9" ry="9" style="stroke:#181818;stroke-width:1;"/><path d="M305.7425,448.0103 Q305.3675,448.2134 304.9456,448.3072 Q304.5394,448.4009 304.0706,448.4009 Q302.4613,448.4009 301.6019,447.3384 Q300.7425,446.2603 300.7425,444.2447 Q300.7425,442.2134 301.6019,441.1509 Q302.4613,440.0728 304.0706,440.0728 Q304.5394,440.0728 304.9456,440.1822 Q305.3675,440.2759 305.7425,440.4634 L305.7425,442.2291 Q305.3206,441.8541 304.93,441.6822 Q304.555,441.5103 304.1488,441.5103 Q303.2894,441.5103 302.8363,442.1978 Q302.3988,442.8853 302.3988,444.2447 Q302.3988,445.6041 302.8363,446.2916 Q303.2894,446.9791 304.1488,446.9791 Q304.555,446.9791 304.93,446.8072 Q305.3206,446.6353 305.7425,446.2447 L305.7425,448.0103 Z " fill="#000000"/><text fill="#000000" font-family="Segoe UI" font-size="11" lengthAdjust="spacing" textLength="95.1328" x="316.43" y="441.6504">Syntactic Service</text><text fill="#000000" font-family="Segoe UI" font-size="11" lengthAdjust="spacing" textLength="31.7002" x="348.1463" y="454.4551">:8082</text><line style="stroke:#181818;stroke-width:0.5;" x1="292.43" x2="413.5628" y1="462.0494" y2="462.0494"/><line style="stroke:#181818;stroke-width:0.5;" x1="292.43" x2="413.5628" y1="470.0494" y2="470.0494"/></g><!--class Web--><g class="entity" data-qualified-name="Web" data-source-line="7" id="ent0001"><rect fill="#89B4FA" height="64.4141" rx="2.5" ry="2.5" style="stroke:#181818;stroke-width:0.5;" width="115.3447" x="178.33" y="7"/><ellipse cx="191.33" cy="31.207" fill="#ADD1B2" rx="9" ry="9" style="stroke:#181818;stroke-width:1;"/><path d="M192.6425,34.9727 Q192.2675,35.1758 191.8456,35.2695 Q191.4394,35.3633 190.9706,35.3633 Q189.3613,35.3633 188.5019,34.3008 Q187.6425,33.2227 187.6425,31.207 Q187.6425,29.1758 188.5019,28.1133 Q189.3613,27.0352 190.9706,27.0352 Q191.4394,27.0352 191.8456,27.1445 Q192.2675,27.2383 192.6425,27.4258 L192.6425,29.1914 Q192.2206,28.8164 191.83,28.6445 Q191.455,28.4727 191.0488,28.4727 Q190.1894,28.4727 189.7363,29.1602 Q189.2988,29.8477 189.2988,31.207 Q189.2988,32.5664 189.7363,33.2539 Q190.1894,33.9414 191.0488,33.9414 Q191.455,33.9414 191.83,33.7695 Q192.2206,33.5977 192.6425,33.207 L192.6425,34.9727 Z " fill="#000000"/><text fill="#000000" font-family="Segoe UI" font-size="11" font-style="italic" lengthAdjust="spacing" textLength="57.7124" x="218.1462" y="22.2104">&#171;browser&#187;</text><text fill="#000000" font-family="Segoe UI" font-size="11" lengthAdjust="spacing" textLength="84.5947" x="204.705" y="35.0151">React Frontend</text><text fill="#000000" font-family="Segoe UI" font-size="11" lengthAdjust="spacing" textLength="87.3447" x="203.33" y="47.8198">(Monaco Editor)</text><line style="stroke:#181818;stroke-width:0.5;" x1="179.33" x2="292.6747" y1="55.4141" y2="55.4141"/><line style="stroke:#181818;stroke-width:0.5;" x1="179.33" x2="292.6747" y1="63.4141" y2="63.4141"/></g><!--link Web to Gateway--><g class="link" data-entity-1="ent0001" data-entity-2="ent0003" data-link-type="dependency" data-source-line="16" id="lnk7"><path codeLine="16" d="M179.79,71.67 C169.78,79.97 160.73,89.9 155,101.42 C144.89,121.72 154.2113,141.1459 167.8013,158.3559" fill="none" id="Web-to-Gateway" style="stroke:#181818;stroke-width:1;"/><polygon fill="#181818" points="170.9,162.28,168.4617,152.7378,167.8013,158.3559,162.1832,157.6956,170.9,162.28" style="stroke:#181818;stroke-width:1;stroke-linejoin:miter;stroke-miterlimit:10;"/><text fill="#000000" font-family="Segoe UI" font-size="11" lengthAdjust="spacing" textLength="131.8765" x="156" y="112.6304">HTTP POST /api/compile</text></g><!--link Web to Semantic--><g class="link" data-entity-1="ent0001" data-entity-2="ent0004" data-link-type="dependency" data-source-line="17" id="lnk8"><path codeLine="17" d="M272.81,71.67 C280.62,80.42 287.78,90.54 292,101.42 C317.2,166.3 310.69,190.98 292,258.03 C289.13,268.31 286.6124,274.3246 281.0824,283.4446" fill="none" id="Web-to-Semantic" style="stroke:#181818;stroke-width:1;"/><polygon fill="#181818" points="278.49,287.72,286.5767,282.0982,281.0824,283.4446,279.7361,277.9503,278.49,287.72" style="stroke:#181818;stroke-width:1;stroke-linejoin:miter;stroke-miterlimit:10;"/><text fill="#000000" font-family="Segoe UI" font-size="11" lengthAdjust="spacing" textLength="130.8291" x="309.55" y="192.4304">WebSocket /ws/compile</text></g><!--link Gateway to Semantic--><g class="link" data-entity-1="ent0003" data-entity-2="ent0004" data-link-type="dependency" data-source-line="18" id="lnk9"><path codeLine="18" d="M196.4,214.28 C197.88,227.72 200.88,244.29 207,258.03 C211.67,268.51 215.4492,274.8419 222.5292,283.8919" fill="none" id="Gateway-to-Semantic" style="stroke:#181818;stroke-width:1;"/><polygon fill="#181818" points="225.61,287.83,223.215,278.2768,222.5292,283.8919,216.914,283.2061,225.61,287.83" style="stroke:#181818;stroke-width:1;stroke-linejoin:miter;stroke-miterlimit:10;"/><text fill="#000000" font-family="Segoe UI" font-size="11" lengthAdjust="spacing" textLength="79.5513" x="208" y="255.2404">POST /compile</text></g><!--link Semantic to Lexical--><g class="link" data-entity-1="ent0004" data-entity-2="ent0005" data-link-type="dependency" data-source-line="19" id="lnk10"><path codeLine="19" d="M187.64,322.37 C142.21,327.1 85.23,341.57 55,382.44 C37.34,406.31 64.2236,422.8517 96.7836,434.5317" fill="none" id="Semantic-to-Lexical" style="stroke:#181818;stroke-width:1;"/><polygon fill="#181818" points="101.49,436.22,94.3692,429.416,96.7836,434.5317,91.668,436.9462,101.49,436.22" style="stroke:#181818;stroke-width:1;stroke-linejoin:miter;stroke-miterlimit:10;"/><text fill="#000000" font-family="Segoe UI" font-size="11" lengthAdjust="spacing" textLength="92.9521" x="56" y="393.6504">POST /lex (HTTP)</text></g><!--link Lexical to Semantic--><g class="link" data-entity-1="ent0005" data-entity-2="ent0004" data-link-type="dependency" data-source-line="21" id="lnk12"><path codeLine="21" d="M165.95,426.09 C171.45,412.47 179.31,395.75 189,382.44 C196.73,371.83 202.8313,364.9979 212.4613,356.0279" fill="none" id="Lexical-to-Semantic" style="stroke:#181818;stroke-width:1;"/><polygon fill="#181818" points="216.12,352.62,206.808,355.8273,212.4613,356.0279,212.2607,361.6812,216.12,352.62" style="stroke:#181818;stroke-width:1;stroke-linejoin:miter;stroke-miterlimit:10;"/><text fill="#000000" font-family="Segoe UI" font-size="11" lengthAdjust="spacing" textLength="85.8892" x="190" y="393.6504">tokens + errors</text></g><!--link Semantic to Syntactic--><g class="link" data-entity-1="ent0004" data-entity-2="ent0006" data-link-type="dependency" data-source-line="20" id="lnk11"><path codeLine="20" d="M278.72,352.71 C295.72,375.25 315.2909,401.2169 331.0709,422.1569" fill="none" id="Semantic-to-Syntactic" style="stroke:#181818;stroke-width:1;"/><polygon fill="#181818" points="334.08,426.15,331.858,416.5551,331.0709,422.1569,325.469,421.3697,334.08,426.15" style="stroke:#181818;stroke-width:1;stroke-linejoin:miter;stroke-miterlimit:10;"/><text fill="#000000" font-family="Segoe UI" font-size="11" lengthAdjust="spacing" textLength="107.3628" x="310.87" y="393.6504">POST /parse (HTTP)</text></g><!--link Syntactic to Semantic--><g class="link" data-entity-1="ent0006" data-entity-2="ent0004" data-link-type="dependency" data-source-line="22" id="lnk13"><path codeLine="22" d="M407.17,425.99 C425.35,413.94 438.43,398.64 427,382.44 C403.43,349.03 364.8559,334.6634 327.5059,327.7234" fill="none" id="Syntactic-to-Semantic" style="stroke:#181818;stroke-width:1;"/><polygon fill="#181818" points="322.59,326.81,330.7078,332.3868,327.5059,327.7234,332.1693,324.5215,322.59,326.81" style="stroke:#181818;stroke-width:1;stroke-linejoin:miter;stroke-miterlimit:10;"/><text fill="#000000" font-family="Segoe UI" font-size="11" lengthAdjust="spacing" textLength="70.2324" x="432.28" y="393.6504">AST + errors</text></g><?plantuml-src RP91Rnen48Nl_XLJzfAeYWYXIZSeGlAYTPegIH5BrGkNmKnNLXPxPJiXfEf_hrdY1LQzUhvvxysCFwtejz84itmovqzt3pd82frZxbdf6YskOOdokRJcHQycfZ8M4i559YP7H930byeBe_qJhWaAAWt1p_l_8uLw9nWCZefrSC2I2h-j22n9ZxgiYB53fjwCK7eGDlIJNYtqsQFHA0taA-MDFUy1ElX5IxYzNLgpSMJ7OqZIc-oBu8nzw4FlExuY5BLLkeJC60-FIbeJw5SboJKYMM230_nXSBIJ7f_Umnrwsk1seKVfPNhPq1zFa4moVYs-dlOKj4RjbGpxQ0psZSE5dkN573xlyXOckFb6ggKJSPDVSN6gzK1lIc9rAZLe6cCfuTVva0yw6RRQXyrrGrpjBTjY8ePfnbFsbx7T5Yyknkre8_WsdqzX-YDaxcEj-jAiQnNE4y4s-EWm4VGthWMZKWVUAqQeBUoeE5A4Adg3irsCyrFkC40amuTo5Daeqp7s9bpOXGEGjSOwTb3fWBmvqvxw1m00?></g></svg>