<svg xmlns="http://www.w3.org/2000/svg" xmlns:xlink="http://www.w3.org/1999/xlink" contentStyleType="text/css" data-diagram-type="DESCRIPTION" height="989px" preserveAspectRatio="none" style="width:617px;height:989px;background:#FAFBFC;" version="1.1" viewBox="0 0 617 989" width="617px" zoomAndPan="magnify"><?plantuml 1.2026.6?><defs/><g><rect fill="#FAFBFC" height="989" style="stroke:none;stroke-width:1;" width="617" x="0" y="0"/><!--cluster Frontend--><g class="cluster" data-qualified-name="Frontend" data-source-line="5" id="ent0001"><path d="M271.5,6 L344.7285,6 A3.75,3.75 0 0 1 347.2285,8.5 L354.2285,28.2969 L420.5,28.2969 A2.5,2.5 0 0 1 423,30.7969 L423,107.09 A2.5,2.5 0 0 1 420.5,109.59 L271.5,109.59 A2.5,2.5 0 0 1 269,107.09 L269,8.5 A2.5,2.5 0 0 1 271.5,6" fill="none" style="stroke:#000000;stroke-width:1.5;"/><line style="stroke:#000000;stroke-width:1.5;" x1="269" x2="354.2285" y1="28.2969" y2="28.2969"/><text fill="#000000" font-family="sans-serif" font-size="14" font-weight="700" lengthAdjust="spacing" textLength="72.2285" x="273" y="20.9951">Frontend</text></g><!--cluster GW--><g class="cluster" data-qualified-name="GW" data-source-line="9" id="ent0003"><path d="M72.5,158.59 L222.749,158.59 A3.75,3.75 0 0 1 225.249,161.09 L232.249,180.8869 L382.5,180.8869 A2.5,2.5 0 0 1 385,183.3869 L385,259.69 A2.5,2.5 0 0 1 382.5,262.19 L72.5,262.19 A2.5,2.5 0 0 1 70,259.69 L70,161.09 A2.5,2.5 0 0 1 72.5,158.59" fill="none" style="stroke:#000000;stroke-width:1.5;"/><line style="stroke:#000000;stroke-width:1.5;" x1="70" x2="232.249" y1="180.8869" y2="180.8869"/><text fill="#000000" font-family="sans-serif" font-size="14" font-weight="700" lengthAdjust="spacing" textLength="149.249" x="74" y="173.5851">API Gateway :8080</text></g><!--cluster SEM--><g class="cluster" data-qualified-name="SEM" data-source-line="14" id="ent0006"><path d="M8.5,311.19 L195.3828,311.19 A3.75,3.75 0 0 1 197.8828,313.69 L204.8828,333.4869 L590.5,333.4869 A2.5,2.5 0 0 1 593,335.9869 L593,606.88 A2.5,2.5 0 0 1 590.5,609.38 L8.5,609.38 A2.5,2.5 0 0 1 6,606.88 L6,313.69 A2.5,2.5 0 0 1 8.5,311.19" fill="none" style="stroke:#000000;stroke-width:1.5;"/><line style="stroke:#000000;stroke-width:1.5;" x1="6" x2="204.8828" y1="333.4869" y2="333.4869"/><text fill="#000000" font-family="sans-serif" font-size="14" font-weight="700" lengthAdjust="spacing" textLength="185.8828" x="10" y="326.1851">Semantic Service :8083</text></g><!--cluster LEX--><g class="cluster" data-qualified-name="LEX" data-source-line="23" id="ent0013"><path d="M175.5,658.38 L343.8027,658.38 A3.75,3.75 0 0 1 346.3027,660.88 L353.3027,680.6769 L353.5,680.6769 A2.5,2.5 0 0 1 356,683.1769 L356,873.06 A2.5,2.5 0 0 1 353.5,875.56 L175.5,875.56 A2.5,2.5 0 0 1 173,873.06 L173,660.88 A2.5,2.5 0 0 1 175.5,658.38" fill="none" style="stroke:#000000;stroke-width:1.5;"/><line style="stroke:#000000;stroke-width:1.5;" x1="173" x2="353.3027" y1="680.6769" y2="680.6769"/><text fill="#000000" font-family="sans-serif" font-size="14" font-weight="700" lengthAdjust="spacing" textLength="167.3027" x="177" y="673.3751">Lexical Service :8081</text></g><!--cluster SYN--><g class="cluster" data-qualified-name="SYN" data-source-line="28" id="ent0016"><path d="M382.5,658.38 L569.417,658.38 A3.75,3.75 0 0 1 571.917,660.88 L578.917,680.6769 L599.5,680.6769 A2.5,2.5 0 0 1 602,683.1769 L602,972.36 A2.5,2.5 0 0 1 599.5,974.86 L382.5,974.86 A2.5,2.5 0 0 1 380,972.36 L380,660.88 A2.5,2.5 0 0 1 382.5,658.38" fill="none" style="stroke:#000000;stroke-width:1.5;"/><line style="stroke:#000000;stroke-width:1.5;" x1="380" x2="578.917" y1="680.6769" y2="680.6769"/><text fill="#000000" font-family="sans-serif" font-size="14" font-weight="700" lengthAdjust="spacing" textLength="185.917" x="384" y="673.3751">Syntactic Service :8082</text></g><!--entity FE--><g class="entity" data-qualified-name="Frontend.FE" data-source-line="6" id="ent0002"><rect fill="#F1F1F1" height="52.5938" rx="2.5" ry="2.5" style="stroke:#181818;stroke-width:0.5;" width="122.5596" x="284.72" y="41"/><text fill="#000000" font-family="sans-serif" font-size="14" lengthAdjust="spacing" textLength="71.4629" x="294.72" y="63.9951">React SPA</text><text fill="#000000" font-family="sans-serif" font-size="14" lengthAdjust="spacing" textLength="102.5596" x="294.72" y="80.292">Vite + Monaco</text></g><!--entity GWCtrl--><g class="entity" data-qualified-name="GW.GWCtrl" data-source-line="10" id="ent0004"><rect fill="#F1F1F1" height="52.5938" rx="2.5" ry="2.5" style="stroke:#181818;stroke-width:0.5;" width="151.0176" x="86.49" y="193.59"/><text fill="#000000" font-family="sans-serif" font-size="14" lengthAdjust="spacing" textLength="131.0176" x="96.49" y="216.5851">GatewayController</text><text fill="#000000" font-family="sans-serif" font-size="14" lengthAdjust="spacing" textLength="85.9688" x="96.49" y="232.882">/api/compile</text></g><!--entity CORS--><g class="entity" data-qualified-name="GW.CORS" data-source-line="11" id="ent0005"><rect fill="#F1F1F1" height="36.2969" rx="2.5" ry="2.5" style="stroke:#181818;stroke-width:0.5;" width="96.3096" x="272.85" y="201.74"/><text fill="#000000" font-family="sans-serif" font-size="14" lengthAdjust="spacing" textLength="76.3096" x="282.85" y="224.7351">CorsConfig</text></g><!--entity SEMCtrl--><g class="entity" data-qualified-name="SEM.SEMCtrl" data-source-line="15" id="ent0007"><rect fill="#F1F1F1" height="52.5938" rx="2.5" ry="2.5" style="stroke:#181818;stroke-width:0.5;" width="146.4307" x="104.78" y="346.19"/><text fill="#000000" font-family="sans-serif" font-size="14" lengthAdjust="spacing" textLength="126.4307" x="114.78" y="369.1851">CompileController</text><text fill="#000000" font-family="sans-serif" font-size="14" lengthAdjust="spacing" textLength="101.2471" x="114.78" y="385.482">POST /compile</text></g><!--entity SEMWS--><g class="entity" data-qualified-name="SEM.SEMWS" data-source-line="16" id="ent0008"><rect fill="#F1F1F1" height="52.5938" rx="2.5" ry="2.5" style="stroke:#181818;stroke-width:0.5;" width="211.085" x="317.46" y="346.19"/><text fill="#000000" font-family="sans-serif" font-size="14" lengthAdjust="spacing" textLength="191.085" x="327.46" y="369.1851">CompileWebSocketHandler</text><text fill="#000000" font-family="sans-serif" font-size="14" lengthAdjust="spacing" textLength="110.5371" x="327.46" y="385.482">WS /ws/compile</text></g><!--entity ORCH--><g class="entity" data-qualified-name="SEM.ORCH" data-source-line="17" id="ent0009"><rect fill="#F1F1F1" height="36.2969" rx="2.5" ry="2.5" style="stroke:#181818;stroke-width:0.5;" width="174.5537" x="196.72" y="459.78"/><text fill="#000000" font-family="sans-serif" font-size="14" lengthAdjust="spacing" textLength="154.5537" x="206.72" y="482.7751">SemanticOrchestrator</text></g><!--entity ANALYZER--><g class="entity" data-qualified-name="SEM.ANALYZER" data-source-line="18" id="ent0010"><rect fill="#F1F1F1" height="36.2969" rx="2.5" ry="2.5" style="stroke:#181818;stroke-width:0.5;" width="146.5879" x="21.71" y="557.08"/><text fill="#000000" font-family="sans-serif" font-size="14" lengthAdjust="spacing" textLength="126.5879" x="31.71" y="580.0751">SemanticAnalyzer</text></g><!--entity LEXCL--><g class="entity" data-qualified-name="SEM.LEXCL" data-source-line="19" id="ent0011"><rect fill="#F1F1F1" height="36.2969" rx="2.5" ry="2.5" style="stroke:#181818;stroke-width:0.5;" width="161.0254" x="203.49" y="557.08"/><text fill="#000000" font-family="sans-serif" font-size="14" lengthAdjust="spacing" textLength="141.0254" x="213.49" y="580.0751">LexicalServiceClient</text></g><!--entity SYNCL--><g class="entity" data-qualified-name="SEM.SYNCL" data-source-line="20" id="ent0012"><rect fill="#F1F1F1" height="36.2969" rx="2.5" ry="2.5" style="stroke:#181818;stroke-width:0.5;" width="177.1582" x="399.42" y="557.08"/><text fill="#000000" font-family="sans-serif" font-size="14" lengthAdjust="spacing" textLength="157.1582" x="409.42" y="580.0751">SyntacticServiceClient</text></g><!--entity LEXCtrl--><g class="entity" data-qualified-name="LEX.LEXCtrl" data-source-line="24" id="ent0014"><rect fill="#F1F1F1" height="52.5938" rx="2.5" ry="2.5" style="stroke:#181818;stroke-width:0.5;" width="113.8711" x="223.06" y="693.38"/><text fill="#000000" font-family="sans-serif" font-size="14" lengthAdjust="spacing" textLength="93.8711" x="233.06" y="716.3751">LexController</text><text fill="#000000" font-family="sans-serif" font-size="14" lengthAdjust="spacing" textLength="66.8555" x="233.06" y="732.672">POST /lex</text></g><!--entity LEXSVC--><g class="entity" data-qualified-name="LEX.LEXSVC" data-source-line="25" id="ent0015"><rect fill="#F1F1F1" height="52.5938" rx="2.5" ry="2.5" style="stroke:#181818;stroke-width:0.5;" width="121.1787" x="218.41" y="806.97"/><text fill="#000000" font-family="sans-serif" font-size="14" lengthAdjust="spacing" textLength="90.8086" x="228.41" y="829.9651">LexerService</text><text fill="#000000" font-family="sans-serif" font-size="14" lengthAdjust="spacing" textLength="101.1787" x="228.41" y="846.262">DFA Tokenizer</text></g><!--entity SYNCtrl--><g class="entity" data-qualified-name="SYN.SYNCtrl" data-source-line="29" id="ent0017"><rect fill="#F1F1F1" height="52.5938" rx="2.5" ry="2.5" style="stroke:#181818;stroke-width:0.5;" width="127.8574" x="424.07" y="693.38"/><text fill="#000000" font-family="sans-serif" font-size="14" lengthAdjust="spacing" textLength="107.8574" x="434.07" y="716.3751">ParseController</text><text fill="#000000" font-family="sans-serif" font-size="14" lengthAdjust="spacing" textLength="85.1963" x="434.07" y="732.672">POST /parse</text></g><!--entity SYNSVC--><g class="entity" data-qualified-name="SYN.SYNSVC" data-source-line="30" id="ent0018"><rect fill="#F1F1F1" height="36.2969" rx="2.5" ry="2.5" style="stroke:#181818;stroke-width:0.5;" width="116.1816" x="431.91" y="815.12"/><text fill="#000000" font-family="sans-serif" font-size="14" lengthAdjust="spacing" textLength="96.1816" x="441.91" y="838.1151">ParserService</text></g><!--entity RDP--><g class="entity" data-qualified-name="SYN.RDP" data-source-line="31" id="ent0019"><rect fill="#F1F1F1" height="36.2969" rx="2.5" ry="2.5" style="stroke:#181818;stroke-width:0.5;" width="190.5498" x="395.73" y="922.56"/><text fill="#000000" font-family="sans-serif" font-size="14" lengthAdjust="spacing" textLength="170.5498" x="405.73" y="945.5551">RecursiveDescentParser</text></g><!--link FE to GWCtrl--><g class="link" data-entity-1="ent0002" data-entity-2="ent0004" data-link-type="dependency" data-source-line="34" id="lnk20"><path d="M314.79,93.84 C280.95,121.54 231.1291,162.313 197.2391,190.053" fill="none" id="FE-to-GWCtrl" style="stroke:#181818;stroke-width:1;"/><polygon fill="#181818" points="193.37,193.22,202.868,190.6147,197.2391,190.053,197.8008,184.4241,193.37,193.22" style="stroke:#181818;stroke-width:1;stroke-linejoin:miter;stroke-miterlimit:10;"/><text fill="#000000" font-family="sans-serif" font-size="13" lengthAdjust="spacing" textLength="71.0684" x="276.89" y="138.6569">REST HTTP</text></g><!--link FE to SEMWS--><g class="link" data-entity-1="ent0002" data-entity-2="ent0008" data-link-type="dependency" data-source-line="35" id="lnk21"><path d="M360.35,93.88 C368.69,109.76 378.75,130.85 385,150.59 C406.72,219.23 416.4168,299.0424 420.3868,340.8024" fill="none" id="FE-to-SEMWS" style="stroke:#181818;stroke-width:1;"/><polygon fill="#181818" points="420.86,345.78,423.9903,336.4418,420.3868,340.8024,416.0262,337.199,420.86,345.78" style="stroke:#181818;stroke-width:1;stroke-linejoin:miter;stroke-miterlimit:10;"/><text fill="#000000" font-family="sans-serif" font-size="13" lengthAdjust="spacing" textLength="73.0806" x="412.36" y="224.4569">WebSocket</text></g><!--link GWCtrl to SEMCtrl--><g class="link" data-entity-1="ent0004" data-entity-2="ent0007" data-link-type="dependency" data-source-line="36" id="lnk22"><path d="M164.71,246.44 C167.66,274.13 171.803,313.0978 174.743,340.8378" fill="none" id="GWCtrl-to-SEMCtrl" style="stroke:#181818;stroke-width:1;"/><polygon fill="#181818" points="175.27,345.81,178.2992,336.4385,174.743,340.8378,170.3437,337.2817,175.27,345.81" style="stroke:#181818;stroke-width:1;stroke-linejoin:miter;stroke-miterlimit:10;"/><text fill="#000000" font-family="sans-serif" font-size="13" lengthAdjust="spacing" textLength="33.4966" x="170.52" y="291.2569">HTTP</text></g><!--link SEMCtrl to ORCH--><g class="link" data-entity-1="ent0007" data-entity-2="ent0009" data-link-type="dependency" data-source-line="37" id="lnk23"><path d="M204.2,399.06 C223.45,417.84 245.5204,439.389 262.4904,455.939" fill="none" id="SEMCtrl-to-ORCH" style="stroke:#181818;stroke-width:1;"/><polygon fill="#181818" points="266.07,459.43,262.4196,450.2826,262.4904,455.939,256.834,456.0099,266.07,459.43" style="stroke:#181818;stroke-width:1;stroke-linejoin:miter;stroke-miterlimit:10;"/></g><!--link SEMWS to ORCH--><g class="link" data-entity-1="ent0008" data-entity-2="ent0009" data-link-type="dependency" data-source-line="38" id="lnk24"><path d="M388.64,399.06 C363.4,417.84 333.7712,439.895 311.5312,456.445" fill="none" id="SEMWS-to-ORCH" style="stroke:#181818;stroke-width:1;"/><polygon fill="#181818" points="307.52,459.43,317.1282,457.266,311.5312,456.445,312.3522,450.8481,307.52,459.43" style="stroke:#181818;stroke-width:1;stroke-linejoin:miter;stroke-miterlimit:10;"/></g><!--link ORCH to LEXCL--><g class="link" data-entity-1="ent0009" data-entity-2="ent0011" data-link-type="dependency" data-source-line="39" id="lnk25"><path d="M284,496.41 C284,513.6 284,534.7 284,551.86" fill="none" id="ORCH-to-LEXCL" style="stroke:#181818;stroke-width:1;"/><polygon fill="#181818" points="284,556.86,288,547.86,284,551.86,280,547.86,284,556.86" style="stroke:#181818;stroke-width:1;stroke-linejoin:miter;stroke-miterlimit:10;"/></g><!--link ORCH to SYNCL--><g class="link" data-entity-1="ent0009" data-entity-2="ent0012" data-link-type="dependency" data-source-line="40" id="lnk26"><path d="M321.42,496.41 C358.11,513.55 409.22,537.4236 445.95,554.5836" fill="none" id="ORCH-to-SYNCL" style="stroke:#181818;stroke-width:1;"/><polygon fill="#181818" points="450.48,556.7,444.0191,549.2665,445.95,554.5836,440.6329,556.5145,450.48,556.7" style="stroke:#181818;stroke-width:1;stroke-linejoin:miter;stroke-miterlimit:10;"/></g><!--link ORCH to ANALYZER--><g class="link" data-entity-1="ent0009" data-entity-2="ent0010" data-link-type="dependency" data-source-line="41" id="lnk27"><path d="M249.33,496.41 C215.34,513.55 168.2542,537.2882 134.2342,554.4482" fill="none" id="ORCH-to-ANALYZER" style="stroke:#181818;stroke-width:1;"/><polygon fill="#181818" points="129.77,556.7,139.6071,556.2181,134.2342,554.4482,136.0042,549.0754,129.77,556.7" style="stroke:#181818;stroke-width:1;stroke-linejoin:miter;stroke-miterlimit:10;"/></g><!--link LEXCL to LEXCtrl--><g class="link" data-entity-1="ent0011" data-entity-2="ent0014" data-link-type="dependency" data-source-line="42" id="lnk28"><path d="M283.51,593.69 C282.81,618.58 281.6593,659.4119 280.8593,688.1119" fill="none" id="LEXCL-to-LEXCtrl" style="stroke:#181818;stroke-width:1;"/><polygon fill="#181818" points="280.72,693.11,284.9692,684.2249,280.8593,688.1119,276.9723,684.002,280.72,693.11" style="stroke:#181818;stroke-width:1;stroke-linejoin:miter;stroke-miterlimit:10;"/><text fill="#000000" font-family="sans-serif" font-size="13" lengthAdjust="spacing" textLength="33.4966" x="283.59" y="638.4469">HTTP</text></g><!--link SYNCL to SYNCtrl--><g class="link" data-entity-1="ent0012" data-entity-2="ent0017" data-link-type="dependency" data-source-line="43" id="lnk29"><path d="M488,593.69 C488,618.58 488,659.41 488,688.11" fill="none" id="SYNCL-to-SYNCtrl" style="stroke:#181818;stroke-width:1;"/><polygon fill="#181818" points="488,693.11,492,684.11,488,688.11,484,684.11,488,693.11" style="stroke:#181818;stroke-width:1;stroke-linejoin:miter;stroke-miterlimit:10;"/><text fill="#000000" font-family="sans-serif" font-size="13" lengthAdjust="spacing" textLength="33.4966" x="489" y="638.4469">HTTP</text></g><!--link LEXCtrl to LEXSVC--><g class="link" data-entity-1="ent0014" data-entity-2="ent0015" data-link-type="dependency" data-source-line="44" id="lnk30"><path d="M279.77,746.27 C279.61,764.42 279.4341,783.6602 279.2741,801.7802" fill="none" id="LEXCtrl-to-LEXSVC" style="stroke:#181818;stroke-width:1;"/><polygon fill="#181818" points="279.23,806.78,283.3093,797.8157,279.2741,801.7802,275.3096,797.745,279.23,806.78" style="stroke:#181818;stroke-width:1;stroke-linejoin:miter;stroke-miterlimit:10;"/></g><!--link SYNCtrl to SYNSVC--><g class="link" data-entity-1="ent0017" data-entity-2="ent0018" data-link-type="dependency" data-source-line="45" id="lnk31"><path d="M488.46,746.27 C488.83,767.25 489.2703,791.3808 489.6003,809.7708" fill="none" id="SYNCtrl-to-SYNSVC" style="stroke:#181818;stroke-width:1;"/><polygon fill="#181818" points="489.69,814.77,493.5279,805.6997,489.6003,809.7708,485.5292,805.8432,489.69,814.77" style="stroke:#181818;stroke-width:1;stroke-linejoin:miter;stroke-miterlimit:10;"/></g><!--link SYNSVC to RDP--><g class="link" data-entity-1="ent0018" data-entity-2="ent0019" data-link-type="dependency" data-source-line="46" id="lnk32"><path d="M490.17,851.68 C490.35,871.22 490.6039,897.7302 490.7839,917.2702" fill="none" id="SYNSVC-to-RDP" style="stroke:#181818;stroke-width:1;"/><polygon fill="#181818" points="490.83,922.27,494.7469,913.2335,490.7839,917.2702,486.7473,913.3072,490.83,922.27" style="stroke:#181818;stroke-width:1;stroke-linejoin:miter;stroke-miterlimit:10;"/></g><?plantuml-src RPDDZzem48Rl_8efFLOhTjlBQW-LKfCibO14CLgwAovUCqijZ8qSxmUj-j_hE7QK12v4zZplpEkPuTCMNuH28FcYo9VfSWK6kMLg9t5KxOKwCiCEyCpuVcVqgzeIBRM1prcI_SX8X-3wSDGAbQNs9B6JP7HqMhP366T6AujgEuQ_8-WK79V8k0LQ91lr82p25rXenRWU0wiWIqV_EacIuYVSCullx0HtjzUtrnwwNmzp1eQuaaPBYMQZ9kme9hLF8J6eY3MohoFQL4xq8dOU8Nb9U_Kf7fYoWWD5yoOuUXFVF4lJnT05QQfrNHGvNK7FXjDTyk61DJvJpVTePqnjlNvDOV9U3HEiQLyURUQ6_yRA6cQryMnUajbbD55CdlvWWoNBPFxub9PzT8uVWZCPdawaSFFs-3pzHUQ3j2TbtLW5FwVfuzBHtQw6nBsctiJCmwOw-BoX4ZzQ9sVDT0eq8VT6JRC4LdgFIiJNEX5z8FqvH_izJr-Z_w6dWfdgmfYFzNNxvZDVNXMDHQnsClXxy5TJYJUSOiLT3nkLnyjfKRlEKhYw-Xxs6UwWJ5tnsMfLn8ZV41TersaKs10CEY-9nphajwKHjyVwnv-QeRV7PghjiTqWZxM2Rg5Qq4exWSW5JTsGI0GwNBcFlt5j-0y0?></g></svg>