<svg xmlns="http://www.w3.org/2000/svg" xmlns:xlink="http://www.w3.org/1999/xlink" contentStyleType="text/css" data-diagram-type="DESCRIPTION" height="772px" preserveAspectRatio="none" style="width:442px;height:772px;background:#FAFBFC;" version="1.1" viewBox="0 0 442 772" width="442px" zoomAndPan="magnify"><?plantuml 1.2026.6?><defs/><g><rect fill="#FAFBFC" height="772" style="stroke:none;stroke-width:1;" width="442" x="0" y="0"/><!--cluster Server--><g class="cluster" data-qualified-name="Server" data-source-line="5" id="ent0001"><polygon fill="none" points="16,176.6,26,166.6,417,166.6,417,737.97,407,747.97,16,747.97,16,176.6" style="stroke:#181818;stroke-width:1;stroke-linejoin:miter;stroke-miterlimit:10;"/><line style="stroke:#181818;stroke-width:1;" x1="407" x2="417" y1="176.6" y2="166.6"/><line style="stroke:#181818;stroke-width:1;" x1="16" x2="407" y1="176.6" y2="176.6"/><line style="stroke:#181818;stroke-width:1;" x1="407" x2="407" y1="176.6" y2="747.97"/><text fill="#000000" font-family="sans-serif" font-size="14" font-weight="700" lengthAdjust="spacing" textLength="92.3604" x="166.3198" y="192.5951">PC Servidor</text></g><!--cluster Docker--><g class="cluster" data-qualified-name="Server.Docker" data-source-line="6" id="ent0002"><polygon fill="none" points="40,224.6,50,214.6,393,214.6,393,713.97,383,723.97,40,723.97,40,224.6" style="stroke:#181818;stroke-width:1;stroke-linejoin:miter;stroke-miterlimit:10;"/><line style="stroke:#181818;stroke-width:1;" x1="383" x2="393" y1="224.6" y2="214.6"/><line style="stroke:#181818;stroke-width:1;" x1="40" x2="383" y1="224.6" y2="224.6"/><line style="stroke:#181818;stroke-width:1;" x1="383" x2="383" y1="224.6" y2="723.97"/><text fill="#000000" font-family="sans-serif" font-size="14" font-weight="700" lengthAdjust="spacing" textLength="96.4824" x="164.2588" y="240.5951">Docker Host</text></g><!--cluster Client--><g class="cluster" data-qualified-name="Client" data-source-line="15" id="ent0008"><polygon fill="none" points="161,16,171,6,341,6,341,107.6,331,117.6,161,117.6,161,16" style="stroke:#181818;stroke-width:1;stroke-linejoin:miter;stroke-miterlimit:10;"/><line style="stroke:#181818;stroke-width:1;" x1="331" x2="341" y1="16" y2="6"/><line style="stroke:#181818;stroke-width:1;" x1="161" x2="331" y1="16" y2="16"/><line style="stroke:#181818;stroke-width:1;" x1="331" x2="331" y1="16" y2="117.6"/><text fill="#000000" font-family="sans-serif" font-size="14" font-weight="700" lengthAdjust="spacing" textLength="80.9307" x="206.5347" y="31.9951">PC Cliente</text></g><!--entity Frontend--><g class="entity" data-qualified-name="Server.Docker.Frontend" data-source-line="7" id="ent0003"><rect fill="#F1F1F1" height="55.5938" rx="2.5" ry="2.5" style="stroke:#181818;stroke-width:0.5;" width="165.9736" x="67.01" y="254.6"/><polygon fill="#F1F1F1" points="215.9836,259.6,215.9836,273.6,227.9836,273.6,227.9836,265.6,221.9836,259.6,215.9836,259.6" style="stroke:#181818;stroke-width:0.5;stroke-linejoin:miter;stroke-miterlimit:10;"/><line style="stroke:#181818;stroke-width:0.5;" x1="221.9836" x2="221.9836" y1="259.6" y2="265.6"/><line style="stroke:#181818;stroke-width:0.5;" x1="227.9836" x2="221.9836" y1="265.6" y2="265.6"/><text fill="#000000" font-family="sans-serif" font-size="14" lengthAdjust="spacing" textLength="135.9736" x="77.01" y="280.5951">Frontend Container</text><text fill="#000000" font-family="sans-serif" font-size="14" lengthAdjust="spacing" textLength="103.5986" x="77.01" y="296.892">Node 21 :5173</text></g><!--entity Gateway--><g class="entity" data-qualified-name="Server.Docker.Gateway" data-source-line="8" id="ent0004"><rect fill="#F1F1F1" height="55.5938" rx="2.5" ry="2.5" style="stroke:#181818;stroke-width:0.5;" width="126.6328" x="239.68" y="387.19"/><polygon fill="#F1F1F1" points="349.3128,392.19,349.3128,406.19,361.3128,406.19,361.3128,398.19,355.3128,392.19,349.3128,392.19" style="stroke:#181818;stroke-width:0.5;stroke-linejoin:miter;stroke-miterlimit:10;"/><line style="stroke:#181818;stroke-width:0.5;" x1="355.3128" x2="355.3128" y1="392.19" y2="398.19"/><line style="stroke:#181818;stroke-width:0.5;" x1="361.3128" x2="355.3128" y1="398.19" y2="398.19"/><text fill="#000000" font-family="sans-serif" font-size="14" lengthAdjust="spacing" textLength="88.4434" x="249.68" y="413.1851">API Gateway</text><text fill="#000000" font-family="sans-serif" font-size="14" lengthAdjust="spacing" textLength="96.6328" x="249.68" y="429.482">Java 21 :8080</text></g><!--entity Semantic--><g class="entity" data-qualified-name="Server.Docker.Semantic" data-source-line="9" id="ent0005"><rect fill="#F1F1F1" height="55.5938" rx="2.5" ry="2.5" style="stroke:#181818;stroke-width:0.5;" width="151.8574" x="95.07" y="519.78"/><polygon fill="#F1F1F1" points="229.9274,524.78,229.9274,538.78,241.9274,538.78,241.9274,530.78,235.9274,524.78,229.9274,524.78" style="stroke:#181818;stroke-width:0.5;stroke-linejoin:miter;stroke-miterlimit:10;"/><line style="stroke:#181818;stroke-width:0.5;" x1="235.9274" x2="235.9274" y1="524.78" y2="530.78"/><line style="stroke:#181818;stroke-width:0.5;" x1="241.9274" x2="235.9274" y1="530.78" y2="530.78"/><text fill="#000000" font-family="sans-serif" font-size="14" lengthAdjust="spacing" textLength="121.8574" x="105.07" y="545.7751">Semantic Service</text><text fill="#000000" font-family="sans-serif" font-size="14" lengthAdjust="spacing" textLength="96.6328" x="105.07" y="562.072">Java 21 :8083</text></g><!--entity Lexical--><g class="entity" data-qualified-name="Server.Docker.Lexical" data-source-line="10" id="ent0006"><rect fill="#F1F1F1" height="55.5938" rx="2.5" ry="2.5" style="stroke:#181818;stroke-width:0.5;" width="134.9453" x="55.53" y="652.38"/><polygon fill="#F1F1F1" points="173.4753,657.38,173.4753,671.38,185.4753,671.38,185.4753,663.38,179.4753,657.38,173.4753,657.38" style="stroke:#181818;stroke-width:0.5;stroke-linejoin:miter;stroke-miterlimit:10;"/><line style="stroke:#181818;stroke-width:0.5;" x1="179.4753" x2="179.4753" y1="657.38" y2="663.38"/><line style="stroke:#181818;stroke-width:0.5;" x1="185.4753" x2="179.4753" y1="663.38" y2="663.38"/><text fill="#000000" font-family="sans-serif" font-size="14" lengthAdjust="spacing" textLength="104.9453" x="65.53" y="678.3751">Lexical Service</text><text fill="#000000" font-family="sans-serif" font-size="14" lengthAdjust="spacing" textLength="96.6328" x="65.53" y="694.672">Java 21 :8081</text></g><!--entity Syntactic--><g class="entity" data-qualified-name="Server.Docker.Syntactic" data-source-line="11" id="ent0007"><rect fill="#F1F1F1" height="55.5938" rx="2.5" ry="2.5" style="stroke:#181818;stroke-width:0.5;" width="151.0781" x="225.46" y="652.38"/><polygon fill="#F1F1F1" points="359.5381,657.38,359.5381,671.38,371.5381,671.38,371.5381,663.38,365.5381,657.38,359.5381,657.38" style="stroke:#181818;stroke-width:0.5;stroke-linejoin:miter;stroke-miterlimit:10;"/><line style="stroke:#181818;stroke-width:0.5;" x1="365.5381" x2="365.5381" y1="657.38" y2="663.38"/><line style="stroke:#181818;stroke-width:0.5;" x1="371.5381" x2="365.5381" y1="663.38" y2="663.38"/><text fill="#000000" font-family="sans-serif" font-size="14" lengthAdjust="spacing" textLength="121.0781" x="235.46" y="678.3751">Syntactic Service</text><text fill="#000000" font-family="sans-serif" font-size="14" lengthAdjust="spacing" textLength="96.6328" x="235.46" y="694.672">Java 21 :8082</text></g><!--entity Browser--><g class="entity" data-qualified-name="Client.Browser" data-source-line="16" id="ent0009"><rect fill="#F1F1F1" height="55.5938" rx="2.5" ry="2.5" style="stroke:#181818;stroke-width:0.5;" width="148.9521" x="176.52" y="46"/><polygon fill="#F1F1F1" points="308.4721,51,308.4721,65,320.4721,65,320.4721,57,314.4721,51,308.4721,51" style="stroke:#181818;stroke-width:0.5;stroke-linejoin:miter;stroke-miterlimit:10;"/><line style="stroke:#181818;stroke-width:0.5;" x1="314.4721" x2="314.4721" y1="51" y2="57"/><line style="stroke:#181818;stroke-width:0.5;" x1="320.4721" x2="314.4721" y1="57" y2="57"/><text fill="#000000" font-family="sans-serif" font-size="14" lengthAdjust="spacing" textLength="112.417" x="186.52" y="71.9951">Navegador Web</text><text fill="#000000" font-family="sans-serif" font-size="14" lengthAdjust="spacing" textLength="118.9521" x="186.52" y="88.292">(Chrome/Firefox)</text></g><!--link Browser to Frontend--><g class="link" data-entity-1="ent0009" data-entity-2="ent0003" data-link-type="dependency" data-source-line="19" id="lnk10"><path d="M237.8,101.81 C218.44,141.4 184.7661,210.2881 165.4061,249.8881" fill="none" id="Browser-to-Frontend" style="stroke:#181818;stroke-width:1;"/><polygon fill="#181818" points="163.21,254.38,170.7564,248.0514,165.4061,249.8881,163.5694,244.5377,163.21,254.38" style="stroke:#181818;stroke-width:1;stroke-linejoin:miter;stroke-miterlimit:10;"/><text fill="#000000" font-family="sans-serif" font-size="13" lengthAdjust="spacing" textLength="33.4966" x="222.16" y="146.6669">HTTP</text></g><!--link Browser to Gateway--><g class="link" data-entity-1="ent0009" data-entity-2="ent0004" data-link-type="dependency" data-source-line="20" id="lnk11"><path d="M257.47,101.93 C259.71,111.86 262.13,123.2 264,133.6 C280.61,225.99 293.5762,331.623 299.3762,381.833" fill="none" id="Browser-to-Gateway" style="stroke:#181818;stroke-width:1;stroke-dasharray:7,7;"/><polygon fill="#181818" points="299.95,386.8,302.8908,377.4004,299.3762,381.833,294.9437,378.3185,299.95,386.8" style="stroke:#181818;stroke-width:1;stroke-linejoin:miter;stroke-miterlimit:10;"/><text fill="#000000" font-family="sans-serif" font-size="13" lengthAdjust="spacing" textLength="53.8091" x="291.42" y="286.9569">API calls</text></g><!--link Frontend to Gateway--><g class="link" data-entity-1="ent0003" data-entity-2="ent0004" data-link-type="dependency" data-source-line="21" id="lnk12"><path d="M181.7,310.45 C207.87,332.79 241.0365,361.1045 267.2765,383.4945" fill="none" id="Frontend-to-Gateway" style="stroke:#181818;stroke-width:1;"/><polygon fill="#181818" points="271.08,386.74,266.83,377.8553,267.2765,383.4945,261.6373,383.941,271.08,386.74" style="stroke:#181818;stroke-width:1;stroke-linejoin:miter;stroke-miterlimit:10;"/><text fill="#000000" font-family="sans-serif" font-size="13" lengthAdjust="spacing" textLength="35.0898" x="236.66" y="353.2569">/api/*</text></g><!--link Frontend to Semantic--><g class="link" data-entity-1="ent0003" data-entity-2="ent0005" data-link-type="dependency" data-source-line="22" id="lnk13"><path d="M145.92,310.59 C141.81,342.42 136.89,396.65 143,442.78 C146.53,469.43 153.4137,494.1819 160.1037,514.9019" fill="none" id="Frontend-to-Semantic" style="stroke:#181818;stroke-width:1;"/><polygon fill="#181818" points="161.64,519.66,162.6812,509.8663,160.1037,514.9019,155.0682,512.3244,161.64,519.66" style="stroke:#181818;stroke-width:1;stroke-linejoin:miter;stroke-miterlimit:10;"/><text fill="#000000" font-family="sans-serif" font-size="13" lengthAdjust="spacing" textLength="77.4033" x="144" y="419.5569">/ws/compile</text></g><!--link Gateway to Semantic--><g class="link" data-entity-1="ent0004" data-entity-2="ent0005" data-link-type="dependency" data-source-line="23" id="lnk14"><path d="M275.65,443.04 C253,465.46 224.5143,493.6334 201.8743,516.0334" fill="none" id="Gateway-to-Semantic" style="stroke:#181818;stroke-width:1;"/><polygon fill="#181818" points="198.32,519.55,207.5311,516.0635,201.8743,516.0334,201.9045,510.3766,198.32,519.55" style="stroke:#181818;stroke-width:1;stroke-linejoin:miter;stroke-miterlimit:10;"/><text fill="#000000" font-family="sans-serif" font-size="13" lengthAdjust="spacing" textLength="75.0928" x="245.9" y="485.8469">HTTP :8083</text></g><!--link Semantic to Lexical--><g class="link" data-entity-1="ent0005" data-entity-2="ent0006" data-link-type="dependency" data-source-line="24" id="lnk15"><path d="M161.05,575.64 C152.82,598.05 142.8962,625.0574 134.6562,647.4574" fill="none" id="Semantic-to-Lexical" style="stroke:#181818;stroke-width:1;"/><polygon fill="#181818" points="132.93,652.15,139.7912,645.0843,134.6562,647.4574,132.2831,642.3224,132.93,652.15" style="stroke:#181818;stroke-width:1;stroke-linejoin:miter;stroke-miterlimit:10;"/><text fill="#000000" font-family="sans-serif" font-size="13" lengthAdjust="spacing" textLength="75.0928" x="150.87" y="618.4469">HTTP :8081</text></g><!--link Semantic to Syntactic--><g class="link" data-entity-1="ent0005" data-entity-2="ent0007" data-link-type="dependency" data-source-line="25" id="lnk16"><path d="M202.91,575.61 C213.37,584.81 224.9,595.31 235,605.38 C249.98,620.3 262.5217,634.1447 274.9217,648.4247" fill="none" id="Semantic-to-Syntactic" style="stroke:#181818;stroke-width:1;"/><polygon fill="#181818" points="278.2,652.2,275.3193,642.7818,274.9217,648.4247,269.2789,648.0271,278.2,652.2" style="stroke:#181818;stroke-width:1;stroke-linejoin:miter;stroke-miterlimit:10;"/><text fill="#000000" font-family="sans-serif" font-size="13" lengthAdjust="spacing" textLength="75.0928" x="251.09" y="618.4469">HTTP :8082</text></g><?plantuml-src TP5TJy8m58Rl-okEyqPDS0nY95oOZE44Ov384c-uATq16xQMT9EF6FwxNVV55hrQr_CyFJrlhq9SSu4mUny_Wv0XagjYn_q8fhxh1K1LojUKfIJPSh6ZYiQmecoxKV9RX9wCf89ht_L7laU8ESQQUx10jUUXL1RGnFoWWXy2UHzhBDbMRqnaaXgW-Cy0g1jRlf8YHH62fxzKNqejnKpV4NeE31-SnxwHIwebk_CflD0K3_Iq5AzqJuqrw0wwnYfABMc1CHKfP_dz6JRDVZ5DphJKDpnoHgE_JSUO1TBkUTB3iN-RzlAc9QJbCpbV9Er57FNyXihN9iVw_1dTuuRgju1FN2t5ZVUbP8ospnMkvV7MY2Cb3mcgxE1Y2PtEKnKj364I1FEwTg-BHOAwbaMjvueIKWcT1c3J7RVlcjKgQbq-93QJyOv7I4gfXMJjypSWrMw6bAbV44wJgEEzO7g_?></g></svg>