<svg xmlns="http://www.w3.org/2000/svg" xmlns:xlink="http://www.w3.org/1999/xlink" contentStyleType="text/css" data-diagram-type="ACTIVITY" height="1222px" preserveAspectRatio="none" style="width:313px;height:1222px;background:#FAFBFC;" version="1.1" viewBox="0 0 313 1222" width="313px" zoomAndPan="magnify"><?plantuml 1.2026.6?><defs/><g><rect fill="#FAFBFC" height="1222" style="stroke:none;stroke-width:1;" width="313" x="0" y="0"/><ellipse cx="145.4053" cy="25" fill="#222222" rx="10" ry="10" style="stroke:#222222;stroke-width:1;"/><rect fill="#F1F1F1" height="33.9688" rx="12.5" ry="12.5" style="stroke:#181818;stroke-width:0.5;" width="199.3027" x="45.7539" y="55"/><text fill="#000000" font-family="sans-serif" font-size="12" lengthAdjust="spacing" textLength="179.3027" x="55.7539" y="76.1387">Usuario escribe c&#243;digo fuente</text><rect fill="#F1F1F1" height="33.9688" rx="12.5" ry="12.5" style="stroke:#181818;stroke-width:0.5;" width="129.2363" x="80.7871" y="108.9688"/><text fill="#000000" font-family="sans-serif" font-size="12" lengthAdjust="spacing" textLength="109.2363" x="90.7871" y="130.1074">Presiona Compilar</text><rect fill="#F1F1F1" height="33.9688" rx="12.5" ry="12.5" style="stroke:#181818;stroke-width:0.5;" width="249.8164" x="20.4971" y="162.9375"/><text fill="#000000" font-family="sans-serif" font-size="12" lengthAdjust="spacing" textLength="229.8164" x="30.4971" y="184.0762">API Gateway recibe POST /api/compile</text><rect fill="#F1F1F1" height="33.9688" rx="12.5" ry="12.5" style="stroke:#181818;stroke-width:0.5;" width="243.084" x="23.8633" y="216.9063"/><text fill="#000000" font-family="sans-serif" font-size="12" lengthAdjust="spacing" textLength="223.084" x="33.8633" y="238.0449">Semantic Orchestrator inicia pipeline</text><rect fill="#F1F1F1" height="47.9375" rx="12.5" ry="12.5" style="stroke:#181818;stroke-width:0.5;" width="158.9023" x="65.9541" y="270.875"/><text fill="#000000" font-family="sans-serif" font-size="12" lengthAdjust="spacing" textLength="138.9023" x="75.9541" y="292.0137">LLAMAR L&#233;xico Service</text><text fill="#000000" font-family="sans-serif" font-size="12" lengthAdjust="spacing" textLength="57.3047" x="75.9541" y="305.9824">POST /lex</text><rect fill="#F1F1F1" height="33.9688" rx="12.5" ry="12.5" style="stroke:#181818;stroke-width:0.5;" width="223.4785" x="33.666" y="387.2148"/><text fill="#000000" font-family="sans-serif" font-size="12" lengthAdjust="spacing" textLength="203.4785" x="43.666" y="408.3535">Retornar JSON con errores l&#233;xicos</text><ellipse cx="145.4053" cy="460.6992" fill="none" rx="11" ry="11" style="stroke:#222222;stroke-width:1;"/><ellipse cx="145.4053" cy="460.6992" fill="#222222" rx="6" ry="6" style="stroke:#222222;stroke-width:1;"/><polygon fill="#F1F1F1" points="98.9963,338.8125,191.8142,338.8125,203.8142,350.8125,191.8142,362.8125,98.9963,362.8125,86.9963,350.8125,98.9963,338.8125" style="stroke:#181818;stroke-width:0.5;stroke-linejoin:miter;stroke-miterlimit:10;"/><text fill="#000000" font-family="sans-serif" font-size="11" lengthAdjust="spacing" textLength="10.0386" x="149.4053" y="373.0229">S&#237;</text><text fill="#000000" font-family="sans-serif" font-size="11" lengthAdjust="spacing" textLength="92.8179" x="98.9963" y="354.6206">&#191;Errores l&#233;xicos?</text><rect fill="#F1F1F1" height="47.9375" rx="12.5" ry="12.5" style="stroke:#181818;stroke-width:0.5;" width="179.6504" x="55.5801" y="513.6992"/><text fill="#000000" font-family="sans-serif" font-size="12" lengthAdjust="spacing" textLength="159.6504" x="65.5801" y="534.8379">LLAMAR Sint&#225;ctico Service</text><text fill="#000000" font-family="sans-serif" font-size="12" lengthAdjust="spacing" textLength="73.0254" x="65.5801" y="548.8066">POST /parse</text><rect fill="#F1F1F1" height="33.9688" rx="12.5" ry="12.5" style="stroke:#181818;stroke-width:0.5;" width="246.2129" x="22.2988" y="630.0391"/><text fill="#000000" font-family="sans-serif" font-size="12" lengthAdjust="spacing" textLength="226.2129" x="32.2988" y="651.1777">Retornar JSON con errores sint&#225;cticos</text><ellipse cx="145.4053" cy="703.5234" fill="none" rx="11" ry="11" style="stroke:#222222;stroke-width:1;"/><ellipse cx="145.4053" cy="703.5234" fill="#222222" rx="6" ry="6" style="stroke:#222222;stroke-width:1;"/><polygon fill="#F1F1F1" points="88.5764,581.6367,202.2341,581.6367,214.2341,593.6367,202.2341,605.6367,88.5764,605.6367,76.5764,593.6367,88.5764,581.6367" style="stroke:#181818;stroke-width:0.5;stroke-linejoin:miter;stroke-miterlimit:10;"/><text fill="#000000" font-family="sans-serif" font-size="11" lengthAdjust="spacing" textLength="10.0386" x="149.4053" y="615.8472">S&#237;</text><text fill="#000000" font-family="sans-serif" font-size="11" lengthAdjust="spacing" textLength="113.6577" x="88.5764" y="597.4448">&#191;Errores sint&#225;cticos?</text><rect fill="#F1F1F1" height="33.9688" rx="12.5" ry="12.5" style="stroke:#181818;stroke-width:0.5;" width="258.8105" x="16" y="756.5234"/><text fill="#000000" font-family="sans-serif" font-size="12" lengthAdjust="spacing" textLength="238.8105" x="26" y="777.6621">Recorrer AST con Analizador Sem&#225;ntico</text><rect fill="#F1F1F1" height="33.9688" rx="12.5" ry="12.5" style="stroke:#181818;stroke-width:0.5;" width="201.1836" x="44.8135" y="810.4922"/><text fill="#000000" font-family="sans-serif" font-size="12" lengthAdjust="spacing" textLength="181.1836" x="54.8135" y="831.6309">Verificar tipos y declaraciones</text><rect fill="#F1F1F1" height="33.9688" rx="12.5" ry="12.5" style="stroke:#181818;stroke-width:0.5;" width="185.0586" x="52.876" y="864.4609"/><text fill="#000000" font-family="sans-serif" font-size="12" lengthAdjust="spacing" textLength="165.0586" x="62.876" y="885.5996">Construir tabla de s&#237;mbolos</text><rect fill="#F1F1F1" height="61.9063" rx="12.5" ry="12.5" style="stroke:#181818;stroke-width:0.5;" width="149.3574" x="70.7266" y="966.832"/><text fill="#000000" font-family="sans-serif" font-size="12" lengthAdjust="spacing" textLength="111.3457" x="80.7266" y="987.9707">Retornar JSON con</text><text fill="#000000" font-family="sans-serif" font-size="12" lengthAdjust="spacing" textLength="129.3574" x="80.7266" y="1001.9395">errores sem&#225;nticos +</text><text fill="#000000" font-family="sans-serif" font-size="12" lengthAdjust="spacing" textLength="106.1543" x="80.7266" y="1015.9082">tabla de s&#237;mbolos</text><ellipse cx="145.4053" cy="1059.7383" fill="none" rx="11" ry="11" style="stroke:#222222;stroke-width:1;"/><ellipse cx="145.4053" cy="1059.7383" fill="#222222" rx="6" ry="6" style="stroke:#222222;stroke-width:1;"/><polygon fill="#F1F1F1" points="86.5435,918.4297,204.2671,918.4297,216.2671,930.4297,204.2671,942.4297,86.5435,942.4297,74.5435,930.4297,86.5435,918.4297" style="stroke:#181818;stroke-width:0.5;stroke-linejoin:miter;stroke-miterlimit:10;"/><text fill="#000000" font-family="sans-serif" font-size="11" lengthAdjust="spacing" textLength="10.0386" x="149.4053" y="952.6401">S&#237;</text><text fill="#000000" font-family="sans-serif" font-size="11" lengthAdjust="spacing" textLength="117.7236" x="86.5435" y="934.2378">&#191;Errores sem&#225;nticos?</text><rect fill="#F1F1F1" height="47.9375" rx="12.5" ry="12.5" style="stroke:#181818;stroke-width:0.5;" width="195.1133" x="47.8486" y="1112.7383"/><text fill="#000000" font-family="sans-serif" font-size="12" lengthAdjust="spacing" textLength="137.3027" x="57.8486" y="1133.877">Retornar JSON exitoso:</text><text fill="#000000" font-family="sans-serif" font-size="12" lengthAdjust="spacing" textLength="175.1133" x="57.8486" y="1147.8457">tokens + AST + symbolTable</text><ellipse cx="145.4053" cy="1191.6758" fill="none" rx="11" ry="11" style="stroke:#222222;stroke-width:1;"/><ellipse cx="145.4053" cy="1191.6758" fill="#222222" rx="6" ry="6" style="stroke:#222222;stroke-width:1;"/><line style="stroke:#181818;stroke-width:1;" x1="145.4053" x2="145.4053" y1="35" y2="55"/><polygon fill="#181818" points="141.4053,45,145.4053,55,149.4053,45,145.4053,49" style="stroke:#181818;stroke-width:1;stroke-linejoin:miter;stroke-miterlimit:10;"/><line style="stroke:#181818;stroke-width:1;" x1="145.4053" x2="145.4053" y1="88.9688" y2="108.9688"/><polygon fill="#181818" points="141.4053,98.9688,145.4053,108.9688,149.4053,98.9688,145.4053,102.9688" style="stroke:#181818;stroke-width:1;stroke-linejoin:miter;stroke-miterlimit:10;"/><line style="stroke:#181818;stroke-width:1;" x1="145.4053" x2="145.4053" y1="142.9375" y2="162.9375"/><polygon fill="#181818" points="141.4053,152.9375,145.4053,162.9375,149.4053,152.9375,145.4053,156.9375" style="stroke:#181818;stroke-width:1;stroke-linejoin:miter;stroke-miterlimit:10;"/><line style="stroke:#181818;stroke-width:1;" x1="145.4053" x2="145.4053" y1="196.9063" y2="216.9063"/><polygon fill="#181818" points="141.4053,206.9063,145.4053,216.9063,149.4053,206.9063,145.4053,210.9063" style="stroke:#181818;stroke-width:1;stroke-linejoin:miter;stroke-miterlimit:10;"/><line style="stroke:#181818;stroke-width:1;" x1="145.4053" x2="145.4053" y1="250.875" y2="270.875"/><polygon fill="#181818" points="141.4053,260.875,145.4053,270.875,149.4053,260.875,145.4053,264.875" style="stroke:#181818;stroke-width:1;stroke-linejoin:miter;stroke-miterlimit:10;"/><line style="stroke:#181818;stroke-width:1;" x1="145.4053" x2="145.4053" y1="421.1836" y2="449.6992"/><polygon fill="#181818" points="141.4053,439.6992,145.4053,449.6992,149.4053,439.6992,145.4053,443.6992" style="stroke:#181818;stroke-width:1;stroke-linejoin:miter;stroke-miterlimit:10;"/><line style="stroke:#181818;stroke-width:1;" x1="145.4053" x2="145.4053" y1="362.8125" y2="387.2148"/><polygon fill="#181818" points="141.4053,377.2148,145.4053,387.2148,149.4053,377.2148,145.4053,381.2148" style="stroke:#181818;stroke-width:1;stroke-linejoin:miter;stroke-miterlimit:10;"/><line style="stroke:#181818;stroke-width:1;" x1="203.8142" x2="267.1445" y1="350.8125" y2="350.8125"/><polygon fill="#181818" points="263.1445,419.6992,267.1445,429.6992,271.1445,419.6992,267.1445,423.6992" style="stroke:#181818;stroke-width:1;stroke-linejoin:miter;stroke-miterlimit:10;"/><line style="stroke:#181818;stroke-width:1;" x1="267.1445" x2="267.1445" y1="350.8125" y2="493.6992"/><line style="stroke:#181818;stroke-width:1;" x1="267.1445" x2="145.4053" y1="493.6992" y2="493.6992"/><line style="stroke:#181818;stroke-width:1;" x1="145.4053" x2="145.4053" y1="493.6992" y2="513.6992"/><polygon fill="#181818" points="141.4053,503.6992,145.4053,513.6992,149.4053,503.6992,145.4053,507.6992" style="stroke:#181818;stroke-width:1;stroke-linejoin:miter;stroke-miterlimit:10;"/><line style="stroke:#181818;stroke-width:1;" x1="145.4053" x2="145.4053" y1="318.8125" y2="338.8125"/><polygon fill="#181818" points="141.4053,328.8125,145.4053,338.8125,149.4053,328.8125,145.4053,332.8125" style="stroke:#181818;stroke-width:1;stroke-linejoin:miter;stroke-miterlimit:10;"/><line style="stroke:#181818;stroke-width:1;" x1="145.4053" x2="145.4053" y1="664.0078" y2="692.5234"/><polygon fill="#181818" points="141.4053,682.5234,145.4053,692.5234,149.4053,682.5234,145.4053,686.5234" style="stroke:#181818;stroke-width:1;stroke-linejoin:miter;stroke-miterlimit:10;"/><line style="stroke:#181818;stroke-width:1;" x1="145.4053" x2="145.4053" y1="605.6367" y2="630.0391"/><polygon fill="#181818" points="141.4053,620.0391,145.4053,630.0391,149.4053,620.0391,145.4053,624.0391" style="stroke:#181818;stroke-width:1;stroke-linejoin:miter;stroke-miterlimit:10;"/><line style="stroke:#181818;stroke-width:1;" x1="214.2341" x2="278.5117" y1="593.6367" y2="593.6367"/><polygon fill="#181818" points="274.5117,662.5234,278.5117,672.5234,282.5117,662.5234,278.5117,666.5234" style="stroke:#181818;stroke-width:1;stroke-linejoin:miter;stroke-miterlimit:10;"/><line style="stroke:#181818;stroke-width:1;" x1="278.5117" x2="278.5117" y1="593.6367" y2="736.5234"/><line style="stroke:#181818;stroke-width:1;" x1="278.5117" x2="145.4053" y1="736.5234" y2="736.5234"/><line style="stroke:#181818;stroke-width:1;" x1="145.4053" x2="145.4053" y1="736.5234" y2="756.5234"/><polygon fill="#181818" points="141.4053,746.5234,145.4053,756.5234,149.4053,746.5234,145.4053,750.5234" style="stroke:#181818;stroke-width:1;stroke-linejoin:miter;stroke-miterlimit:10;"/><line style="stroke:#181818;stroke-width:1;" x1="145.4053" x2="145.4053" y1="561.6367" y2="581.6367"/><polygon fill="#181818" points="141.4053,571.6367,145.4053,581.6367,149.4053,571.6367,145.4053,575.6367" style="stroke:#181818;stroke-width:1;stroke-linejoin:miter;stroke-miterlimit:10;"/><line style="stroke:#181818;stroke-width:1;" x1="145.4053" x2="145.4053" y1="790.4922" y2="810.4922"/><polygon fill="#181818" points="141.4053,800.4922,145.4053,810.4922,149.4053,800.4922,145.4053,804.4922" style="stroke:#181818;stroke-width:1;stroke-linejoin:miter;stroke-miterlimit:10;"/><line style="stroke:#181818;stroke-width:1;" x1="145.4053" x2="145.4053" y1="844.4609" y2="864.4609"/><polygon fill="#181818" points="141.4053,854.4609,145.4053,864.4609,149.4053,854.4609,145.4053,858.4609" style="stroke:#181818;stroke-width:1;stroke-linejoin:miter;stroke-miterlimit:10;"/><line style="stroke:#181818;stroke-width:1;" x1="145.4053" x2="145.4053" y1="1028.7383" y2="1048.7383"/><polygon fill="#181818" points="141.4053,1038.7383,145.4053,1048.7383,149.4053,1038.7383,145.4053,1042.7383" style="stroke:#181818;stroke-width:1;stroke-linejoin:miter;stroke-miterlimit:10;"/><line style="stroke:#181818;stroke-width:1;" x1="145.4053" x2="145.4053" y1="942.4297" y2="966.832"/><polygon fill="#181818" points="141.4053,956.832,145.4053,966.832,149.4053,956.832,145.4053,960.832" style="stroke:#181818;stroke-width:1;stroke-linejoin:miter;stroke-miterlimit:10;"/><line style="stroke:#181818;stroke-width:1;" x1="216.2671" x2="230.084" y1="930.4297" y2="930.4297"/><polygon fill="#181818" points="226.084,1013.2852,230.084,1023.2852,234.084,1013.2852,230.084,1017.2852" style="stroke:#181818;stroke-width:1;stroke-linejoin:miter;stroke-miterlimit:10;"/><line style="stroke:#181818;stroke-width:1;" x1="230.084" x2="230.084" y1="930.4297" y2="1092.7383"/><line style="stroke:#181818;stroke-width:1;" x1="230.084" x2="145.4053" y1="1092.7383" y2="1092.7383"/><line style="stroke:#181818;stroke-width:1;" x1="145.4053" x2="145.4053" y1="1092.7383" y2="1112.7383"/><polygon fill="#181818" points="141.4053,1102.7383,145.4053,1112.7383,149.4053,1102.7383,145.4053,1106.7383" style="stroke:#181818;stroke-width:1;stroke-linejoin:miter;stroke-miterlimit:10;"/><line style="stroke:#181818;stroke-width:1;" x1="145.4053" x2="145.4053" y1="898.4297" y2="918.4297"/><polygon fill="#181818" points="141.4053,908.4297,145.4053,918.4297,149.4053,908.4297,145.4053,912.4297" style="stroke:#181818;stroke-width:1;stroke-linejoin:miter;stroke-miterlimit:10;"/><line style="stroke:#181818;stroke-width:1;" x1="145.4053" x2="145.4053" y1="1160.6758" y2="1180.6758"/><polygon fill="#181818" points="141.4053,1170.6758,145.4053,1180.6758,149.4053,1170.6758,145.4053,1174.6758" style="stroke:#181818;stroke-width:1;stroke-linejoin:miter;stroke-miterlimit:10;"/><?plantuml-src bLAzJXj14ExlAKQY0L7GdmjqiJ0AScBBvwHoCzuRcv7FCwVPDR7pDYvJKEK18d4lnXn8W3YAqEv-_xjnmzAWuHQM63PhqvrKGwtLu6HKZBwCXbbCQ2dBVyGT6YjG3CPBWj3-hNYjiDgH91fa-TGeiWh2KBSDrsX-Lao_mZKc-eK7C0eTRpefvt213L-49rn7BMcBaZZ0nC8jnMIOF00B1qPekA6QnN5PFXuNtuePZDi_UmuA9TaT1rh8isXDUmVn2auV_bsPgGU2-XaQByyWtPB0QTdUdsK0-OpSGz3WffnyXw02z8uoS5XCscGa5QzUtKkMr1v3-Y21Bncfbo6-4ZwJuosjbsL6GSt8e73VZbK8rlmRAn_EvsoFtPxgs_uaunK7DqZSQ8G3L1JyTJ3uOv4BvqCLdtp7Zi1bZNuFiRtVBlqNn7wN5-t_gB8GwjFWV24V6VKAlXMZFIUDcZjLDoGkybJy7EAXuyzTptVl11u1?></g></svg>