<svg xmlns="http://www.w3.org/2000/svg" xmlns:xlink="http://www.w3.org/1999/xlink" contentStyleType="text/css" data-diagram-type="DESCRIPTION" height="990px" preserveAspectRatio="none" style="width:842px;height:990px;background:#FAFBFC;" version="1.1" viewBox="0 0 842 990" width="842px" zoomAndPan="magnify"><?plantuml 1.2026.6?><defs/><g><rect fill="#FAFBFC" height="990" style="stroke:none;stroke-width:1;" width="842" x="0" y="0"/><!--cluster LEX--><g class="cluster" data-qualified-name="LEX" data-source-line="5" id="ent0002"><rect fill="none" height="119.59" rx="2.5" ry="2.5" style="stroke:#181818;stroke-width:1;" width="178" x="126.49" y="122.6"/><text fill="#000000" font-family="sans-serif" font-size="14" font-weight="700" lengthAdjust="spacing" textLength="117.8652" x="156.5574" y="137.5951">Lexical Service</text><text fill="#000000" font-family="sans-serif" font-size="14" font-weight="700" lengthAdjust="spacing" textLength="162.2715" x="134.3543" y="153.892">Java / DFA Tokenizer</text></g><!--cluster SYN--><g class="cluster" data-qualified-name="SYN" data-source-line="11" id="ent0005"><rect fill="none" height="119.6" rx="2.5" ry="2.5" style="stroke:#181818;stroke-width:1;" width="222" x="98.49" y="429.78"/><text fill="#000000" font-family="sans-serif" font-size="14" font-weight="700" lengthAdjust="spacing" textLength="136.4795" x="141.2503" y="444.7751">Syntactic Service</text><text fill="#000000" font-family="sans-serif" font-size="14" font-weight="700" lengthAdjust="spacing" textLength="184.0781" x="117.4509" y="461.072">Java Recursive Descent</text></g><!--cluster SEM--><g class="cluster" data-qualified-name="SEM" data-source-line="17" id="ent0008"><rect fill="none" height="119.6" rx="2.5" ry="2.5" style="stroke:#181818;stroke-width:1;" width="178" x="246.49" y="720.97"/><text fill="#000000" font-family="sans-serif" font-size="14" font-weight="700" lengthAdjust="spacing" textLength="136.4453" x="267.2673" y="735.9651">Semantic Service</text><text fill="#000000" font-family="sans-serif" font-size="14" font-weight="700" lengthAdjust="spacing" textLength="116.3135" x="277.3333" y="752.262">Visitor Pattern</text></g><!--entity LEXSVC--><g class="entity" data-qualified-name="LEX.LEXSVC" data-source-line="6" id="ent0003"><rect fill="#F1F1F1" height="52.5938" rx="2.5" ry="2.5" style="stroke:#181818;stroke-width:0.5;" width="110.8086" x="154.08" y="173.6"/><text fill="#000000" font-family="sans-serif" font-size="14" lengthAdjust="spacing" textLength="90.8086" x="164.08" y="196.5951">LexerService</text><text fill="#000000" font-family="sans-serif" font-size="14" lengthAdjust="spacing" textLength="74.874" x="164.08" y="212.892">.tokenize()</text></g><!--entity SYNSVC--><g class="entity" data-qualified-name="SYN.SYNSVC" data-source-line="12" id="ent0006"><rect fill="#F1F1F1" height="52.5938" rx="2.5" ry="2.5" style="stroke:#181818;stroke-width:0.5;" width="190.5498" x="114.21" y="480.78"/><text fill="#000000" font-family="sans-serif" font-size="14" lengthAdjust="spacing" textLength="170.5498" x="124.21" y="503.7751">RecursiveDescentParser</text><text fill="#000000" font-family="sans-serif" font-size="14" lengthAdjust="spacing" textLength="54.5029" x="124.21" y="520.072">.parse()</text></g><!--entity SEMSVC--><g class="entity" data-qualified-name="SEM.SEMSVC" data-source-line="18" id="ent0009"><rect fill="#F1F1F1" height="52.5938" rx="2.5" ry="2.5" style="stroke:#181818;stroke-width:0.5;" width="146.5879" x="262.19" y="771.97"/><text fill="#000000" font-family="sans-serif" font-size="14" lengthAdjust="spacing" textLength="126.5879" x="272.19" y="794.9651">SemanticAnalyzer</text><text fill="#000000" font-family="sans-serif" font-size="14" lengthAdjust="spacing" textLength="69.542" x="272.19" y="811.262">.analyze()</text></g><!--entity INPUT--><g class="entity" data-qualified-name="INPUT" data-source-line="3" id="ent0001"><rect fill="#F1F1F1" height="52.5938" rx="2.5" ry="2.5" style="stroke:#181818;stroke-width:0.5;" width="121.5342" x="106.72" y="7"/><text fill="#000000" font-family="sans-serif" font-size="14" lengthAdjust="spacing" textLength="101.5342" x="116.72" y="29.9951">C&#243;digo Fuente</text><text fill="#000000" font-family="sans-serif" font-size="14" lengthAdjust="spacing" textLength="47.3662" x="116.72" y="46.292">(texto)</text></g><!--entity TOKENS--><g class="entity" data-qualified-name="TOKENS" data-source-line="9" id="ent0004"><path d="M134.29,315.19 C134.29,305.19 209.4878,305.19 209.4878,305.19 C209.4878,305.19 284.6855,305.19 284.6855,315.19 L284.6855,356.7837 C284.6855,366.7837 209.4878,366.7837 209.4878,366.7837 C209.4878,366.7837 134.29,366.7837 134.29,356.7837 L134.29,315.19" fill="#F1F1F1" style="stroke:#181818;stroke-width:0.5;"/><path d="M134.29,315.19 C134.29,325.19 209.4878,325.19 209.4878,325.19 C209.4878,325.19 284.6855,325.19 284.6855,315.19" fill="none" style="stroke:#181818;stroke-width:0.5;"/><text fill="#000000" font-family="sans-serif" font-size="14" lengthAdjust="spacing" textLength="50.0049" x="144.29" y="342.1851">Tokens</text><text fill="#000000" font-family="sans-serif" font-size="14" lengthAdjust="spacing" textLength="130.3955" x="144.29" y="358.482">{type, value, line}</text></g><!--entity AST--><g class="entity" data-qualified-name="AST" data-source-line="15" id="ent0007"><path d="M6,606.38 C6,596.38 52.4868,596.38 52.4868,596.38 C52.4868,596.38 98.9736,596.38 98.9736,606.38 L98.9736,647.9738 C98.9736,657.9738 52.4868,657.9738 52.4868,657.9738 C52.4868,657.9738 6,657.9738 6,647.9738 L6,606.38" fill="#F1F1F1" style="stroke:#181818;stroke-width:0.5;"/><path d="M6,606.38 C6,616.38 52.4868,616.38 52.4868,616.38 C52.4868,616.38 98.9736,616.38 98.9736,606.38" fill="none" style="stroke:#181818;stroke-width:0.5;"/><text fill="#000000" font-family="sans-serif" font-size="14" lengthAdjust="spacing" textLength="27.0156" x="16" y="633.3751">AST</text><text fill="#000000" font-family="sans-serif" font-size="14" lengthAdjust="spacing" textLength="72.9736" x="16" y="649.672">Program...</text></g><!--entity SYMTAB--><g class="entity" data-qualified-name="SYMTAB" data-source-line="21" id="ent0010"><path d="M293.68,913.57 C293.68,903.57 335.4876,903.57 335.4876,903.57 C335.4876,903.57 377.2952,903.57 377.2952,913.57 L377.2952,955.1637 C377.2952,965.1637 335.4876,965.1637 335.4876,965.1637 C335.4876,965.1637 293.68,965.1637 293.68,955.1637 L293.68,913.57" fill="#F1F1F1" style="stroke:#181818;stroke-width:0.5;"/><path d="M293.68,913.57 C293.68,923.57 335.4876,923.57 335.4876,923.57 C335.4876,923.57 377.2952,923.57 377.2952,913.57" fill="none" style="stroke:#181818;stroke-width:0.5;"/><text fill="#000000" font-family="sans-serif" font-size="14" lengthAdjust="spacing" textLength="60.4365" x="303.68" y="940.5651">Tabla de</text><text fill="#000000" font-family="sans-serif" font-size="14" lengthAdjust="spacing" textLength="63.6152" x="303.68" y="956.862">S&#237;mbolos</text></g><!--entity OLLAMA--><g class="entity" data-qualified-name="OLLAMA" data-source-line="23" id="ent0011"><rect fill="#F1F1F1" height="52.5938" rx="2.5" ry="2.5" style="stroke:#181818;stroke-width:0.5;" width="103.3506" x="155.81" y="600.88"/><text fill="#000000" font-family="sans-serif" font-size="14" lengthAdjust="spacing" textLength="57.8525" x="165.81" y="623.8751">OLLAMA</text><text fill="#000000" font-family="sans-serif" font-size="14" lengthAdjust="spacing" textLength="83.3506" x="165.81" y="640.172">llama3.1:8b</text></g><!--entity OUTPUT--><g class="entity" data-qualified-name="OUTPUT" data-source-line="25" id="ent0012"><rect fill="#F1F1F1" height="52.5938" rx="2.5" ry="2.5" style="stroke:#181818;stroke-width:0.5;" width="89.918" x="375.53" y="7"/><text fill="#000000" font-family="sans-serif" font-size="14" lengthAdjust="spacing" textLength="69.918" x="385.53" y="29.9951">Resultado</text><text fill="#000000" font-family="sans-serif" font-size="14" lengthAdjust="spacing" textLength="34.5078" x="385.53" y="46.292">JSON</text></g><!--link INPUT to LEXSVC--><g class="link" data-entity-1="ent0001" data-entity-2="ent0003" data-link-type="dependency" data-source-line="27" id="lnk13"><path d="M163.12,60.04 C161.58,73.98 160.98,91.42 164.49,106.6 C170.02,130.57 180.1338,151.2051 190.6138,169.1051" fill="none" id="INPUT-to-LEXSVC" style="stroke:#181818;stroke-width:1;"/><polygon fill="#181818" points="193.14,173.42,192.0447,163.6322,190.6138,169.1051,185.1409,167.6742,193.14,173.42" style="stroke:#181818;stroke-width:1;stroke-linejoin:miter;stroke-miterlimit:10;"/><text fill="#000000" font-family="sans-serif" font-size="13" lengthAdjust="spacing" textLength="62.0801" x="165.49" y="102.6669">POST /lex</text></g><!--link LEXSVC to TOKENS--><g class="link" data-entity-1="ent0003" data-entity-2="ent0004" data-link-type="dependency" data-source-line="28" id="lnk14"><path d="M209.49,226.43 C209.49,248.77 209.49,276.25 209.49,299.86" fill="none" id="LEXSVC-to-TOKENS" style="stroke:#181818;stroke-width:1;"/><polygon fill="#181818" points="209.49,304.86,213.49,295.86,209.49,299.86,205.49,295.86,209.49,304.86" style="stroke:#181818;stroke-width:1;stroke-linejoin:miter;stroke-miterlimit:10;"/></g><!--link TOKENS to SYNSVC--><g class="link" data-entity-1="ent0004" data-entity-2="ent0006" data-link-type="dependency" data-source-line="29" id="lnk15"><path d="M209.49,367.22 C209.49,399.52 209.49,445.15 209.49,475.53" fill="none" id="TOKENS-to-SYNSVC" style="stroke:#181818;stroke-width:1;"/><polygon fill="#181818" points="209.49,480.53,213.49,471.53,209.49,475.53,205.49,471.53,209.49,480.53" style="stroke:#181818;stroke-width:1;stroke-linejoin:miter;stroke-miterlimit:10;"/><text fill="#000000" font-family="sans-serif" font-size="13" lengthAdjust="spacing" textLength="79.1108" x="210.49" y="409.8469">POST /parse</text></g><!--link SYNSVC to AST--><g class="link" data-entity-1="ent0006" data-entity-2="ent0007" data-link-type="dependency" data-source-line="30" id="lnk16"><path d="M175.42,533.71 C151.07,552.02 122.2053,573.7338 96.5953,593.0038" fill="none" id="SYNSVC-to-AST" style="stroke:#181818;stroke-width:1;"/><polygon fill="#181818" points="92.6,596.01,102.1966,593.795,96.5953,593.0038,97.3866,587.4025,92.6,596.01" style="stroke:#181818;stroke-width:1;stroke-linejoin:miter;stroke-miterlimit:10;"/></g><!--link AST to SEMSVC--><g class="link" data-entity-1="ent0007" data-entity-2="ent0009" data-link-type="dependency" data-source-line="31" id="lnk17"><path d="M55.91,658.43 C59.13,674.09 65.37,692.5 77.49,704.97 C126.3,755.21 199.4008,777.2947 256.8708,787.7547" fill="none" id="AST-to-SEMSVC" style="stroke:#181818;stroke-width:1;"/><polygon fill="#181818" points="261.79,788.65,253.6517,783.1031,256.8708,787.7547,252.2192,790.9738,261.79,788.65" style="stroke:#181818;stroke-width:1;stroke-linejoin:miter;stroke-miterlimit:10;"/><text fill="#000000" font-family="sans-serif" font-size="13" lengthAdjust="spacing" textLength="86.4614" x="78.49" y="701.0369">llamada local</text></g><!--link SEMSVC to SYMTAB--><g class="link" data-entity-1="ent0009" data-entity-2="ent0010" data-link-type="dependency" data-source-line="32" id="lnk18"><path d="M335.49,824.81 C335.49,847.15 335.49,874.63 335.49,898.23" fill="none" id="SEMSVC-to-SYMTAB" style="stroke:#181818;stroke-width:1;"/><polygon fill="#181818" points="335.49,903.23,339.49,894.23,335.49,898.23,331.49,894.23,335.49,903.23" style="stroke:#181818;stroke-width:1;stroke-linejoin:miter;stroke-miterlimit:10;"/><text fill="#000000" font-family="sans-serif" font-size="13" lengthAdjust="spacing" textLength="95.4434" x="336.49" y="869.6369">pobla/consulta</text></g><!--link SEMSVC to OLLAMA--><g class="link" data-entity-1="ent0009" data-entity-2="ent0011" data-link-type="dependency" data-source-line="33" id="lnk19"><path d="M307.15,771.59 C288.74,753.98 265,729.46 247.49,704.97 C236.03,688.95 227.9392,673.7487 220.7092,658.2987" fill="none" id="SEMSVC-to-OLLAMA" style="stroke:#181818;stroke-width:1;"/><polygon fill="#181818" points="218.59,653.77,218.7817,663.617,220.7092,658.2987,226.0276,660.2262,218.59,653.77" style="stroke:#181818;stroke-width:1;stroke-linejoin:miter;stroke-miterlimit:10;"/><text fill="#000000" font-family="sans-serif" font-size="13" lengthAdjust="spacing" textLength="145.8818" x="248.49" y="701.0369">generateExplanation()</text></g><!--link OLLAMA to SEMSVC--><g class="link" data-entity-1="ent0011" data-entity-2="ent0009" data-link-type="dependency" data-source-line="34" id="lnk20"><path d="M186.11,653.95 C176.1,669.28 168.22,688.83 177.49,704.97 C195.83,736.93 225.436,756.8158 257.316,771.2658" fill="none" id="OLLAMA-to-SEMSVC" style="stroke:#181818;stroke-width:1;"/><polygon fill="#181818" points="261.87,773.33,255.3241,765.9713,257.316,771.2658,252.0214,773.2577,261.87,773.33" style="stroke:#181818;stroke-width:1;stroke-linejoin:miter;stroke-miterlimit:10;"/><text fill="#000000" font-family="sans-serif" font-size="13" lengthAdjust="spacing" textLength="50.6987" x="178.49" y="701.0369">texto IA</text></g><!--link OUTPUT to LEXSVC--><g class="link" data-entity-1="ent0012" data-entity-2="ent0003" data-link-type="dependency" data-source-line="35" id="lnk21"><path d="M375.2,41.85 C342.44,49.27 298.77,63.44 268.49,89.6 C242.54,112.01 227.7361,144.0293 218.9761,168.6493" fill="none" id="OUTPUT-to-LEXSVC" style="stroke:#181818;stroke-width:1;"/><polygon fill="#181818" points="217.3,173.36,224.0855,166.2216,218.9761,168.6493,216.5484,163.5399,217.3,173.36" style="stroke:#181818;stroke-width:1;stroke-linejoin:miter;stroke-miterlimit:10;"/><text fill="#000000" font-family="sans-serif" font-size="13" lengthAdjust="spacing" textLength="53.7329" x="269.49" y="102.6669">tokens[]</text></g><!--link OUTPUT to SYNSVC--><g class="link" data-entity-1="ent0012" data-entity-2="ent0006" data-link-type="dependency" data-source-line="36" id="lnk22"><path d="M407.49,59.83 C403.05,69.08 398.26,79.68 394.49,89.6 C367.76,159.82 336.31,348.87 298.49,413.78 C283.58,439.37 263.8664,459.9462 244.7864,477.0162" fill="none" id="OUTPUT-to-SYNSVC" style="stroke:#181818;stroke-width:1;"/><polygon fill="#181818" points="241.06,480.35,250.4345,477.3302,244.7864,477.0162,245.1004,471.3681,241.06,480.35" style="stroke:#181818;stroke-width:1;stroke-linejoin:miter;stroke-miterlimit:10;"/><text fill="#000000" font-family="sans-serif" font-size="13" lengthAdjust="spacing" textLength="42.98" x="350.17" y="271.2569">tree{}</text></g><!--link OUTPUT to SEMSVC--><g class="link" data-entity-1="ent0012" data-entity-2="ent0009" data-link-type="dependency" data-source-line="37" id="lnk23"><path d="M420.49,59.96 C420.49,92.34 420.49,149.74 420.49,198.89 C420.49,198.89 420.49,198.89 420.49,628.18 C420.49,683.87 386.3401,736.033 361.1601,767.563" fill="none" id="OUTPUT-to-SEMSVC" style="stroke:#181818;stroke-width:1;"/><polygon fill="#181818" points="358.04,771.47,366.7819,766.9335,361.1601,767.563,360.5307,761.9413,358.04,771.47" style="stroke:#181818;stroke-width:1;stroke-linejoin:miter;stroke-miterlimit:10;"/><text fill="#000000" font-family="sans-serif" font-size="13" lengthAdjust="spacing" textLength="99.2583" x="421.49" y="409.8469">symbolTable{}</text></g><!--link OUTPUT to SEMSVC--><g class="link" data-entity-1="ent0012" data-entity-2="ent0009" data-link-type="dependency" data-source-line="38" id="lnk24"><path d="M463.56,59.92 C505.02,88.22 561.49,137.94 561.49,198.89 C561.49,198.89 561.49,198.89 561.49,628.18 C561.49,705.72 479.8277,750.2979 413.8677,774.3379" fill="none" id="OUTPUT-to-SEMSVC-1" style="stroke:#181818;stroke-width:1;"/><polygon fill="#181818" points="409.17,776.05,418.9956,776.7263,413.8677,774.3379,416.2562,769.21,409.17,776.05" style="stroke:#181818;stroke-width:1;stroke-linejoin:miter;stroke-miterlimit:10;"/><text fill="#000000" font-family="sans-serif" font-size="13" lengthAdjust="spacing" textLength="96.7319" x="562.49" y="409.8469">llmExplanation</text></g><!--link OUTPUT to SEMSVC--><g class="link" data-entity-1="ent0012" data-entity-2="ent0009" data-link-type="dependency" data-source-line="39" id="lnk25"><path d="M465.93,40.07 C544.99,52.93 699.49,91.76 699.49,198.89 C699.49,198.89 699.49,198.89 699.49,628.18 C699.49,754.99 520.4963,786.5906 414.1363,794.4706" fill="none" id="OUTPUT-to-SEMSVC-2" style="stroke:#181818;stroke-width:1;"/><polygon fill="#181818" points="409.15,794.84,418.4209,798.1641,414.1363,794.4706,417.8299,790.186,409.15,794.84" style="stroke:#181818;stroke-width:1;stroke-linejoin:miter;stroke-miterlimit:10;"/><text fill="#000000" font-family="sans-serif" font-size="13" lengthAdjust="spacing" textLength="125.7471" x="700.49" y="409.8469">errorExplanations[]</text></g><?plantuml-src TPDBRjim48RtFCKWtTX08wFefiYYWEBOG5e_X4W9MjHTZAI1G9WY3P8sx1W-KbSvGYvMYf8DqqaM0ecPRuR_F6IMNAvGOmqv5ijAgxKiXqee3P_6yVXsF6HCKs5HLeBWQlZwKl9AmNXDqj92zYnjhUfV0HgudoMFMK1FQCiB592Itl32uJzmWp20kt4CcLgIvC-aVUnaz0ls320C9dsAZ6p7z_h7WFHfo0wCbMWnH-CYV4gpa7kxMz5dsA1OkqDmIGSVayr_ZcPfe33TIOk5vSM5nWSgrjhm3S4TcSBLwXEalsUNAazWnoMe3McdTzLSEh4kxetOECqMCj6gSgsFeiXppXQgenfb8Ew96sxTR1AqbhHiiu-cbwgEWR54iNlsUh2z7XMDfc_RXxb0ADqhwUk_EdSxO3hrqoo-3OJD9vDu6Y-a45ZZr-ZBpRVSewqzG1_8h8N5KhdEflDPYprcVbNyni3rzVTkd703oJpDO21eopfJu-q6rnxUqdRqnFjciyxO-9jEkgzbVQsEzMfB1A7SKhBEt6PhAdJ4IhaM30eblUPpfAtC8HL9qcXfj5q9rrFBbUprMUSEdlE_1jp7h2qthDEli_dpzznvAifgelqXS1sJcbqpcMPK7n52r6VQtaL8QwNF8AVZFm00?></g></svg>