<svg xmlns="http://www.w3.org/2000/svg" xmlns:xlink="http://www.w3.org/1999/xlink" contentStyleType="text/css" data-diagram-type="CLASS" height="785px" preserveAspectRatio="none" style="width:476px;height:785px;background:#FAFBFC;" version="1.1" viewBox="0 0 476 785" width="476px" zoomAndPan="magnify"><?plantuml 1.2026.6?><defs/><g><rect fill="#FAFBFC" height="785" style="stroke:none;stroke-width:1;" width="476" x="0" y="0"/><!--class LEXCTRL--><g class="entity" data-qualified-name="LEXCTRL" data-source-line="4" id="ent0001"><rect fill="#F1F1F1" height="64.2969" rx="2.5" ry="2.5" style="stroke:#181818;stroke-width:0.5;" width="210.7002" x="56.75" y="121.08"/><ellipse cx="110.9146" cy="137.08" fill="#ADD1B2" rx="11" ry="11" style="stroke:#181818;stroke-width:1;"/><path d="M113.8833,142.7206 Q113.3052,143.0175 112.6646,143.1581 Q112.0239,143.3144 111.3208,143.3144 Q108.8208,143.3144 107.4927,141.6738 Q106.1802,140.0175 106.1802,136.8925 Q106.1802,133.7675 107.4927,132.1113 Q108.8208,130.455 111.3208,130.455 Q112.0239,130.455 112.6646,130.6113 Q113.3208,130.7675 113.8833,131.0644 L113.8833,133.7831 Q113.2583,133.205 112.6646,132.9394 Q112.0708,132.6581 111.4458,132.6581 Q110.1021,132.6581 109.4146,133.7363 Q108.7271,134.7988 108.7271,136.8925 Q108.7271,138.9863 109.4146,140.0644 Q110.1021,141.1269 111.4458,141.1269 Q112.0708,141.1269 112.6646,140.8613 Q113.2583,140.58 113.8833,140.0019 L113.8833,142.7206 Z " fill="#000000"/><text fill="#000000" font-family="sans-serif" font-size="14" lengthAdjust="spacing" textLength="93.8711" x="131.4146" y="141.9267">LexController</text><line style="stroke:#181818;stroke-width:0.5;" x1="57.75" x2="266.4502" y1="153.08" y2="153.08"/><line style="stroke:#181818;stroke-width:0.5;" x1="57.75" x2="266.4502" y1="161.08" y2="161.08"/><text fill="#000000" font-family="sans-serif" font-size="14" lengthAdjust="spacing" textLength="198.7002" x="62.75" y="178.0751">+lex(request): LexResponse</text></g><!--class LEXSVC--><g class="entity" data-qualified-name="LEXSVC" data-source-line="7" id="ent0002"><rect fill="#F1F1F1" height="96.8906" rx="2.5" ry="2.5" style="stroke:#181818;stroke-width:0.5;" width="230.9414" x="46.63" y="359.46"/><ellipse cx="112.4464" cy="375.46" fill="#ADD1B2" rx="11" ry="11" style="stroke:#181818;stroke-width:1;"/><path d="M115.4152,381.1006 Q114.837,381.3975 114.1964,381.5381 Q113.5558,381.6944 112.8527,381.6944 Q110.3527,381.6944 109.0245,380.0538 Q107.712,378.3975 107.712,375.2725 Q107.712,372.1475 109.0245,370.4913 Q110.3527,368.835 112.8527,368.835 Q113.5558,368.835 114.1964,368.9913 Q114.8527,369.1475 115.4152,369.4444 L115.4152,372.1631 Q114.7902,371.585 114.1964,371.3194 Q113.6027,371.0381 112.9777,371.0381 Q111.6339,371.0381 110.9464,372.1163 Q110.2589,373.1788 110.2589,375.2725 Q110.2589,377.3663 110.9464,378.4444 Q111.6339,379.5069 112.9777,379.5069 Q113.6027,379.5069 114.1964,379.2413 Q114.7902,378.96 115.4152,378.3819 L115.4152,381.1006 Z " fill="#000000"/><text fill="#000000" font-family="sans-serif" font-size="14" lengthAdjust="spacing" textLength="90.8086" x="132.9464" y="380.3067">LexerService</text><line style="stroke:#181818;stroke-width:0.5;" x1="47.63" x2="276.5714" y1="391.46" y2="391.46"/><line style="stroke:#181818;stroke-width:0.5;" x1="47.63" x2="276.5714" y1="399.46" y2="399.46"/><text fill="#000000" font-family="sans-serif" font-size="14" lengthAdjust="spacing" textLength="217.6494" x="52.63" y="416.4551">+tokenize(code): LexResponse</text><text fill="#000000" font-family="sans-serif" font-size="14" lengthAdjust="spacing" textLength="190.6543" x="52.63" y="432.752">-handleOperator(...): String</text><text fill="#000000" font-family="sans-serif" font-size="14" lengthAdjust="spacing" textLength="218.9414" x="52.63" y="449.0489">-symbolToTokenType(s): String</text></g><!--class TOKEN--><g class="entity" data-qualified-name="TOKEN" data-source-line="12" id="ent0003"><rect fill="#F1F1F1" height="96.8906" rx="2.5" ry="2.5" style="stroke:#181818;stroke-width:0.5;" width="101.1885" x="134.5" y="665.09"/><ellipse cx="161.4149" cy="681.09" fill="#ADD1B2" rx="11" ry="11" style="stroke:#181818;stroke-width:1;"/><path d="M164.3836,686.7306 Q163.8055,687.0275 163.1649,687.1681 Q162.5243,687.3244 161.8211,687.3244 Q159.3211,687.3244 157.993,685.6838 Q156.6805,684.0275 156.6805,680.9025 Q156.6805,677.7775 157.993,676.1213 Q159.3211,674.465 161.8211,674.465 Q162.5243,674.465 163.1649,674.6213 Q163.8211,674.7775 164.3836,675.0744 L164.3836,677.7931 Q163.7586,677.215 163.1649,676.9494 Q162.5711,676.6681 161.9461,676.6681 Q160.6024,676.6681 159.9149,677.7463 Q159.2274,678.8088 159.2274,680.9025 Q159.2274,682.9963 159.9149,684.0744 Q160.6024,685.1369 161.9461,685.1369 Q162.5711,685.1369 163.1649,684.8713 Q163.7586,684.59 164.3836,684.0119 L164.3836,686.7306 Z " fill="#000000"/><text fill="#000000" font-family="sans-serif" font-size="14" lengthAdjust="spacing" textLength="42.7109" x="178.0626" y="685.9367">Token</text><line style="stroke:#181818;stroke-width:0.5;" x1="135.5" x2="234.6885" y1="697.09" y2="697.09"/><text fill="#000000" font-family="sans-serif" font-size="14" lengthAdjust="spacing" textLength="82.2227" x="140.5" y="714.0851">type: String</text><text fill="#000000" font-family="sans-serif" font-size="14" lengthAdjust="spacing" textLength="89.1885" x="140.5" y="730.382">value: String</text><text fill="#000000" font-family="sans-serif" font-size="14" lengthAdjust="spacing" textLength="52.6846" x="140.5" y="746.6789">line: int</text><line style="stroke:#181818;stroke-width:0.5;" x1="135.5" x2="234.6885" y1="753.9806" y2="753.9806"/></g><!--class REQ--><g class="entity" data-qualified-name="REQ" data-source-line="17" id="ent0004"><rect fill="#F1F1F1" height="64.2969" rx="2.5" ry="2.5" style="stroke:#181818;stroke-width:0.5;" width="114.1953" x="7" y="524.5"/><ellipse cx="22" cy="540.5" fill="#ADD1B2" rx="11" ry="11" style="stroke:#181818;stroke-width:1;"/><path d="M24.9688,546.1406 Q24.3906,546.4375 23.75,546.5781 Q23.1094,546.7344 22.4063,546.7344 Q19.9063,546.7344 18.5781,545.0938 Q17.2656,543.4375 17.2656,540.3125 Q17.2656,537.1875 18.5781,535.5313 Q19.9063,533.875 22.4063,533.875 Q23.1094,533.875 23.75,534.0313 Q24.4063,534.1875 24.9688,534.4844 L24.9688,537.2031 Q24.3438,536.625 23.75,536.3594 Q23.1563,536.0781 22.5313,536.0781 Q21.1875,536.0781 20.5,537.1563 Q19.8125,538.2188 19.8125,540.3125 Q19.8125,542.4063 20.5,543.4844 Q21.1875,544.5469 22.5313,544.5469 Q23.1563,544.5469 23.75,544.2813 Q24.3438,544 24.9688,543.4219 L24.9688,546.1406 Z " fill="#000000"/><text fill="#000000" font-family="sans-serif" font-size="14" lengthAdjust="spacing" textLength="82.1953" x="36" y="545.3467">LexRequest</text><line style="stroke:#181818;stroke-width:0.5;" x1="8" x2="120.1953" y1="556.5" y2="556.5"/><text fill="#000000" font-family="sans-serif" font-size="14" lengthAdjust="spacing" textLength="84.7109" x="13" y="573.4951">code: String</text><line style="stroke:#181818;stroke-width:0.5;" x1="8" x2="120.1953" y1="580.7969" y2="580.7969"/></g><!--class RES--><g class="entity" data-qualified-name="RES" data-source-line="20" id="ent0005"><rect fill="#F1F1F1" height="80.5938" rx="2.5" ry="2.5" style="stroke:#181818;stroke-width:0.5;" width="208.5332" x="155.83" y="516.35"/><ellipse cx="209.5639" cy="532.35" fill="#ADD1B2" rx="11" ry="11" style="stroke:#181818;stroke-width:1;"/><path d="M212.5326,537.9906 Q211.9545,538.2875 211.3139,538.4281 Q210.6733,538.5844 209.9701,538.5844 Q207.4701,538.5844 206.142,536.9438 Q204.8295,535.2875 204.8295,532.1625 Q204.8295,529.0375 206.142,527.3813 Q207.4701,525.725 209.9701,525.725 Q210.6733,525.725 211.3139,525.8813 Q211.9701,526.0375 212.5326,526.3344 L212.5326,529.0531 Q211.9076,528.475 211.3139,528.2094 Q210.7201,527.9281 210.0951,527.9281 Q208.7514,527.9281 208.0639,529.0063 Q207.3764,530.0688 207.3764,532.1625 Q207.3764,534.2563 208.0639,535.3344 Q208.7514,536.3969 210.0951,536.3969 Q210.7201,536.3969 211.3139,536.1313 Q211.9076,535.85 212.5326,535.2719 L212.5326,537.9906 Z " fill="#000000"/><text fill="#000000" font-family="sans-serif" font-size="14" lengthAdjust="spacing" textLength="92.5654" x="230.0639" y="537.1967">LexResponse</text><line style="stroke:#181818;stroke-width:0.5;" x1="156.83" x2="363.3632" y1="548.35" y2="548.35"/><text fill="#000000" font-family="sans-serif" font-size="14" lengthAdjust="spacing" textLength="146.7539" x="161.83" y="565.3451">tokens: List&lt;Token&gt;</text><text fill="#000000" font-family="sans-serif" font-size="14" lengthAdjust="spacing" textLength="196.5332" x="161.83" y="581.642">errors: List&lt;CompilerError&gt;</text><line style="stroke:#181818;stroke-width:0.5;" x1="156.83" x2="363.3632" y1="588.9438" y2="588.9438"/></g><!--class ERR--><g class="entity" data-qualified-name="ERR" data-source-line="24" id="ent0006"><rect fill="#F1F1F1" height="113.1875" rx="2.5" ry="2.5" style="stroke:#181818;stroke-width:0.5;" width="129.6924" x="270.25" y="656.94"/><ellipse cx="285.25" cy="672.94" fill="#ADD1B2" rx="11" ry="11" style="stroke:#181818;stroke-width:1;"/><path d="M288.2188,678.5806 Q287.6406,678.8775 287,679.0181 Q286.3594,679.1744 285.6563,679.1744 Q283.1563,679.1744 281.8281,677.5337 Q280.5156,675.8775 280.5156,672.7525 Q280.5156,669.6275 281.8281,667.9712 Q283.1563,666.315 285.6563,666.315 Q286.3594,666.315 287,666.4712 Q287.6563,666.6275 288.2188,666.9244 L288.2188,669.6431 Q287.5938,669.065 287,668.7994 Q286.4063,668.5181 285.7813,668.5181 Q284.4375,668.5181 283.75,669.5962 Q283.0625,670.6587 283.0625,672.7525 Q283.0625,674.8462 283.75,675.9244 Q284.4375,676.9869 285.7813,676.9869 Q286.4063,676.9869 287,676.7212 Q287.5938,676.44 288.2188,675.8619 L288.2188,678.5806 Z " fill="#000000"/><text fill="#000000" font-family="sans-serif" font-size="14" lengthAdjust="spacing" textLength="97.6924" x="299.25" y="677.7867">CompilerError</text><line style="stroke:#181818;stroke-width:0.5;" x1="271.25" x2="398.9424" y1="688.94" y2="688.94"/><text fill="#000000" font-family="sans-serif" font-size="14" lengthAdjust="spacing" textLength="82.2227" x="276.25" y="705.9351">type: String</text><text fill="#000000" font-family="sans-serif" font-size="14" lengthAdjust="spacing" textLength="52.6846" x="276.25" y="722.232">line: int</text><text fill="#000000" font-family="sans-serif" font-size="14" lengthAdjust="spacing" textLength="78.9551" x="276.25" y="738.5289">column: int</text><text fill="#000000" font-family="sans-serif" font-size="14" lengthAdjust="spacing" textLength="113.8662" x="276.25" y="754.8257">message: String</text><line style="stroke:#181818;stroke-width:0.5;" x1="271.25" x2="398.9424" y1="762.1275" y2="762.1275"/></g><!--class TT--><g class="entity" data-qualified-name="TT" data-source-line="30" id="ent0007"><rect fill="#F1F1F1" height="292.4531" rx="2.5" ry="2.5" style="stroke:#181818;stroke-width:0.5;" width="159.458" x="302.37" y="7"/><ellipse cx="340.0546" cy="23" fill="#EB937F" rx="11" ry="11" style="stroke:#181818;stroke-width:1;"/><path d="M344.1639,29 L336.4452,29 L336.4452,16.6094 L344.1639,16.6094 L344.1639,18.7656 L338.8983,18.7656 L338.8983,21.4375 L343.6639,21.4375 L343.6639,23.5938 L338.8983,23.5938 L338.8983,26.8438 L344.1639,26.8438 L344.1639,29 Z " fill="#000000"/><text fill="#000000" font-family="sans-serif" font-size="14" lengthAdjust="spacing" textLength="77.0479" x="359.0956" y="27.8467">TokenType</text><line style="stroke:#181818;stroke-width:0.5;" x1="303.37" x2="460.828" y1="39" y2="39"/><text fill="#000000" font-family="sans-serif" font-size="14" lengthAdjust="spacing" textLength="84.7861" x="308.37" y="55.9951">ID, NUMBER</text><text fill="#000000" font-family="sans-serif" font-size="14" lengthAdjust="spacing" textLength="112.9775" x="308.37" y="72.292">FLOAT_NUMBER</text><text fill="#000000" font-family="sans-serif" font-size="14" lengthAdjust="spacing" textLength="101.9033" x="308.37" y="88.5889">TEXT, ENTERO</text><text fill="#000000" font-family="sans-serif" font-size="14" lengthAdjust="spacing" textLength="140.7998" x="308.37" y="104.8857">FLOTANTE, CADENA</text><text fill="#000000" font-family="sans-serif" font-size="14" lengthAdjust="spacing" textLength="137.5938" x="308.37" y="121.1826">SI, SINO, MIENTRAS</text><text fill="#000000" font-family="sans-serif" font-size="14" lengthAdjust="spacing" textLength="110.667" x="308.37" y="137.4795">PARA, IMPRIMIR</text><text fill="#000000" font-family="sans-serif" font-size="14" lengthAdjust="spacing" textLength="57.4629" x="308.37" y="153.7764">ENETRO</text><text fill="#000000" font-family="sans-serif" font-size="14" lengthAdjust="spacing" textLength="90.0908" x="308.37" y="170.0732">PLUS, MINUS</text><text fill="#000000" font-family="sans-serif" font-size="14" lengthAdjust="spacing" textLength="99.6338" x="308.37" y="186.3701">TIMES, DIVIDE</text><text fill="#000000" font-family="sans-serif" font-size="14" lengthAdjust="spacing" textLength="95.5801" x="308.37" y="202.667">MOD, ASSIGN</text><text fill="#000000" font-family="sans-serif" font-size="14" lengthAdjust="spacing" textLength="147.458" x="308.37" y="218.9639">SEMICOLON, COMMA</text><text fill="#000000" font-family="sans-serif" font-size="14" lengthAdjust="spacing" textLength="94.1172" x="308.37" y="235.2607">DOT, LPAREN</text><text fill="#000000" font-family="sans-serif" font-size="14" lengthAdjust="spacing" textLength="121.0234" x="308.37" y="251.5576">RPAREN, LBRACE</text><text fill="#000000" font-family="sans-serif" font-size="14" lengthAdjust="spacing" textLength="114.2422" x="308.37" y="267.8545">RBRACE, EQ, NE</text><text fill="#000000" font-family="sans-serif" font-size="14" lengthAdjust="spacing" textLength="98.793" x="308.37" y="284.1514">LT, GT, LE, GE</text><line style="stroke:#181818;stroke-width:0.5;" x1="303.37" x2="460.828" y1="291.4531" y2="291.4531"/></g><!--link LEXCTRL to LEXSVC--><g class="link" data-entity-1="ent0001" data-entity-2="ent0002" data-link-type="dependency" data-source-line="48" id="lnk8"><path codeLine="48" d="M162.1,185.72 C162.1,229.25 162.1,303.16 162.1,354.01" fill="none" id="LEXCTRL-to-LEXSVC" style="stroke:#181818;stroke-width:1;"/><polygon fill="#181818" points="162.1,359.01,166.1,350.01,162.1,354.01,158.1,350.01,162.1,359.01" style="stroke:#181818;stroke-width:1;stroke-linejoin:miter;stroke-miterlimit:10;"/></g><!--link LEXSVC to REQ--><g class="link" data-entity-1="ent0002" data-entity-2="ent0004" data-link-type="dependency" data-source-line="49" id="lnk9"><path codeLine="49" d="M130.28,456.55 C115.41,478.81 100.9084,500.533 87.7284,520.253" fill="none" id="LEXSVC-to-REQ" style="stroke:#181818;stroke-width:1;"/><polygon fill="#181818" points="84.95,524.41,93.2767,519.1501,87.7284,520.253,86.6255,514.7047,84.95,524.41" style="stroke:#181818;stroke-width:1;stroke-linejoin:miter;stroke-miterlimit:10;"/></g><!--link LEXSVC to RES--><g class="link" data-entity-1="ent0002" data-entity-2="ent0005" data-link-type="dependency" data-source-line="50" id="lnk10"><path codeLine="50" d="M193.92,456.55 C206.77,475.79 218.6528,493.5922 230.9028,511.9322" fill="none" id="LEXSVC-to-RES" style="stroke:#181818;stroke-width:1;"/><polygon fill="#181818" points="233.68,516.09,232.0074,506.3842,230.9028,511.9322,225.3549,510.8277,233.68,516.09" style="stroke:#181818;stroke-width:1;stroke-linejoin:miter;stroke-miterlimit:10;"/></g><!--link RES to TOKEN--><g class="link" data-entity-1="ent0005" data-entity-2="ent0003" data-link-type="dependency" data-source-line="51" id="lnk11"><path codeLine="51" d="M240.98,597.13 C231,617.75 220.8895,638.63 210.3795,660.33" fill="none" id="RES-to-TOKEN" style="stroke:#181818;stroke-width:1;"/><polygon fill="#181818" points="208.2,664.83,215.7231,658.4736,210.3795,660.33,208.5231,654.9864,208.2,664.83" style="stroke:#181818;stroke-width:1;stroke-linejoin:miter;stroke-miterlimit:10;"/></g><!--link RES to ERR--><g class="link" data-entity-1="ent0005" data-entity-2="ent0006" data-link-type="dependency" data-source-line="52" id="lnk12"><path codeLine="52" d="M279.22,597.13 C287.94,615.15 296.2518,632.2994 305.7718,651.9694" fill="none" id="RES-to-ERR" style="stroke:#181818;stroke-width:1;"/><polygon fill="#181818" points="307.95,656.47,307.6297,646.6264,305.7718,651.9694,300.4287,650.1115,307.95,656.47" style="stroke:#181818;stroke-width:1;stroke-linejoin:miter;stroke-miterlimit:10;"/></g><?plantuml-src RLB1Zfim5Bpp5TRsageawhcg8ZdWH5O1PsrdjRSL8LQA0ZQrORNRgl_UPuSafEq1oJDlc3VlsUvKwwwqPOlsPNKwMZFeGs8QOz67DLwlradaheggAPt3VM_h_T0hMXajwfyAVOwYK44FcNfBZEwjQHfb7r3fK4QU4yapz2j2w1DgrDlCgX-3Slt7BmZKNBdEQAUYtnCBPOMohtMbBWxYAHaDUdDI6dhEAdDGVraWD4VVItre5EkKBNjZPul50aG20kjZgBltTcyQQQJtaU-TchcRu9eXL4DpoRwH8lJkGJonUYsROOgRMWEiTNyt2J_F6gmuUGn6Flc_BIU3Z6fnRkkZE1YqTltNa6i9hBBMs0kRcBQhOT_4aykRvHqVJ0dd_vlbbjsdQuPMNr2hd2kFqxXA3-su8B--yv9aSALfZ8fTlY8Sm3fZMBvSeIJFCaQaa8IpSrLY035AS4eA39IWCNm5Yr5EGSUn07ABEOuHpRUSvjJxa8B8uB3DTi9BYvtNIPeJW2bzeYa1d3F8WeMWcy9RavmcB6C5j6Dvxhkb3E9aO4-yW8S342kE4_y_3mS8_0WZUI83-SR_0kI6m1wYoyEUpvVZ4ut6b-ePkEnxA29_e_uSdjGLmPNy0G00?></g></svg>